<svg width="653" height="199" viewBox="0 0 653 199" fill="none" xmlns="http://www.w3.org/2000/svg">
<g clip-path="url(#clip0_4_17)">
<path d="M212.08 145.08H193.98V49.07H212.08V88.44H216.06L241.44 49.07H261.88V49.89L232.25 95.84V98.31L263.52 144.26V145.08H242.26L216.06 105.71H212.08V145.08Z" fill="white"/>
<path d="M318.52 77.05H335.8V145.08H318.52V135.2H316.05C313.03 143.07 306.54 147 296.57 147C293.19 147 290.03 146.45 287.11 145.35C284.18 144.25 281.62 142.56 279.43 140.27C277.24 137.99 275.52 135.13 274.29 131.7C273.06 128.27 272.44 124.22 272.44 119.56V77.04H289.72V115.99C289.72 120.84 290.86 124.61 293.15 127.31C295.44 130.01 298.86 131.36 303.44 131.36C308.65 131.36 312.47 129.69 314.89 126.35C317.31 123.01 318.52 118.46 318.52 112.7V77.04V77.05Z" fill="white"/>
<path d="M365.15 145.08H347.87V49.07H365.15V86.93H367.62C369.45 83.18 372.1 80.28 375.58 78.22C379.05 76.16 383.49 75.13 388.88 75.13C392.9 75.13 396.72 75.91 400.33 77.46C403.94 79.02 407.1 81.28 409.79 84.25C412.49 87.22 414.63 90.86 416.24 95.15C417.84 99.45 418.64 104.34 418.64 109.83V112.3C418.64 117.88 417.86 122.82 416.31 127.11C414.75 131.41 412.65 135.04 410 138.01C407.35 140.98 404.22 143.22 400.6 144.73C396.99 146.24 393.08 146.99 388.87 146.99C385.76 146.99 383.06 146.67 380.78 146.03C378.49 145.39 376.5 144.52 374.81 143.42C373.12 142.32 371.7 141.07 370.56 139.65C369.42 138.23 368.43 136.75 367.61 135.19H365.14V145.07L365.15 145.08ZM383.25 130.54C388.64 130.54 393.01 128.87 396.35 125.53C399.69 122.19 401.36 117.64 401.36 111.88V110.23C401.36 104.47 399.69 99.92 396.35 96.58C393.01 93.24 388.65 91.57 383.25 91.57C377.85 91.57 373.49 93.28 370.15 96.71C366.81 100.14 365.14 104.64 365.14 110.22V111.87C365.14 117.45 366.81 121.95 370.15 125.38C373.49 128.81 377.85 130.52 383.25 130.52V130.54Z" fill="white"/>
<path d="M477.9 135.21H475.43C474.7 136.77 473.81 138.25 472.76 139.67C471.71 141.09 470.34 142.34 468.64 143.44C466.95 144.54 464.94 145.4 462.61 146.05C460.28 146.69 457.47 147.01 454.17 147.01C449.96 147.01 446.05 146.26 442.44 144.75C438.83 143.24 435.67 141 432.98 138.03C430.28 135.06 428.18 131.42 426.67 127.13C425.16 122.83 424.41 117.9 424.41 112.32V109.85C424.41 104.36 425.21 99.47 426.81 95.17C428.41 90.87 430.6 87.24 433.39 84.27C436.18 81.3 439.43 79.04 443.13 77.48C446.83 75.93 450.74 75.15 454.86 75.15C460.35 75.15 464.69 76.18 467.89 78.24C471.09 80.3 473.6 83.2 475.43 86.95H477.9V49.09H495.18V145.1H477.9V135.22V135.21ZM459.79 130.55C465.18 130.55 469.55 128.84 472.89 125.41C476.23 121.98 477.9 117.48 477.9 111.9V110.25C477.9 104.67 476.23 100.17 472.89 96.74C469.55 93.31 465.19 91.6 459.79 91.6C454.39 91.6 450.03 93.27 446.69 96.61C443.35 99.95 441.68 104.5 441.68 110.26V111.91C441.68 117.67 443.35 122.22 446.69 125.56C450.03 128.9 454.39 130.57 459.79 130.57V130.55Z" fill="white"/>
<path d="M522.61 116.69C522.7 118.7 523.18 120.55 524.05 122.24C524.92 123.93 526.11 125.39 527.62 126.63C529.13 127.87 530.86 128.83 532.83 129.51C534.79 130.2 536.88 130.54 539.07 130.54C543.37 130.54 546.66 129.79 548.95 128.28C551.23 126.77 552.88 124.97 553.89 122.86L568.7 131.09C567.88 132.83 566.73 134.63 565.27 136.51C563.81 138.39 561.91 140.1 559.58 141.65C557.25 143.21 554.41 144.48 551.08 145.49C547.74 146.5 543.83 147 539.35 147C534.23 147 529.56 146.18 525.36 144.53C521.15 142.88 517.52 140.51 514.46 137.4C511.4 134.29 509.02 130.5 507.33 126.02C505.64 121.54 504.79 116.47 504.79 110.8V109.98C504.79 104.77 505.68 100.02 507.46 95.72C509.24 91.42 511.69 87.76 514.8 84.75C517.91 81.73 521.54 79.38 525.7 77.69C529.86 76 534.32 75.15 539.07 75.15C544.92 75.15 549.95 76.18 554.16 78.24C558.37 80.3 561.84 82.9 564.58 86.06C567.32 89.21 569.33 92.69 570.62 96.48C571.9 100.28 572.54 103.96 572.54 107.52V116.71H522.61V116.69ZM538.93 90.77C534.54 90.77 530.97 91.89 528.23 94.13C525.49 96.37 523.7 98.95 522.88 101.88H554.98C554.43 98.68 552.72 96.03 549.84 93.92C546.96 91.82 543.32 90.76 538.94 90.76L538.93 90.77Z" fill="white"/>
<path d="M580.9 77.05H599.55L615.6 136.85H618.07L634.12 77.05H652.77L633.29 145.08H600.37L580.89 77.05H580.9Z" fill="white"/>
<path d="M49.36 7.12V191.43C49.36 195.23 46.28 198.3 42.49 198.3H6.86999C3.06999 198.3 -9.76585e-06 195.22 -9.76585e-06 191.43V154.11C-9.76585e-06 151.16 1.87999 148.54 4.67999 147.6L24.75 140.85V100.76L24.55 100.66L3.80999 90.36C1.46999 89.2 -0.0100098 86.82 -0.0100098 84.2V7.12C-9.76585e-06 3.33 3.07999 0.25 6.86999 0.25H42.48C46.28 0.25 49.35 3.33 49.35 7.12H49.36Z" fill="url(#paint0_radial_4_17)"/>
<path d="M98.71 98.99L91.05 101.56C87.73 102.68 87.42 107.24 90.55 108.8L98.7 112.85L102.43 114.71L108.29 117.62L132.9 129.84L144.23 135.47C146.57 136.63 148.05 139.01 148.05 141.63V191.44C148.05 195.24 144.97 198.31 141.18 198.31H105.57C101.77 198.31 98.7 195.23 98.7 191.44V139.92C98.7 138.43 97.86 137.06 96.52 136.41L72.87 124.67L65.87 121.19C59.53 118.04 55.51 111.57 55.51 104.48V103.66C55.51 95.65 60.62 88.53 68.22 85.98L98.7 75.72L105.62 73.39C107.22 72.85 108.29 71.35 108.29 69.67V54.01C108.29 51.84 106.58 49.97 104.41 49.98C102.82 49.99 101.39 49.36 100.36 48.32C99.34 47.3 98.7 45.88 98.7 44.31V7.12C98.7 3.32 101.78 0.25 105.57 0.25H141.18C144.98 0.25 148.05 3.33 148.05 7.12V44.31C148.05 47.44 145.51 49.98 142.38 49.98H136.82C134.65 49.98 132.89 51.74 132.89 53.91V82.55C132.89 85.5 131.01 88.12 128.21 89.06L108.28 95.76L98.69 98.99H98.71Z" fill="url(#paint1_radial_4_17)"/>
<path d="M141.2 198.55H105.59C101.66 198.55 98.47 195.35 98.47 191.43V139.91C98.47 138.52 97.67 137.23 96.43 136.62L65.78 121.4C59.31 118.19 55.28 111.7 55.28 104.47V103.65C55.28 95.52 60.45 88.32 68.16 85.73L105.56 73.14C107.06 72.64 108.06 71.24 108.06 69.66V54C108.06 52.98 107.64 51.98 106.92 51.26C106.25 50.59 105.37 50.23 104.46 50.23C104.43 50.23 104.41 50.23 104.38 50.23C102.79 50.23 101.31 49.62 100.2 48.5C99.08 47.38 98.47 45.9 98.47 44.32V7.12C98.47 3.19 101.67 0 105.59 0H141.2C145.13 0 148.32 3.2 148.32 7.12V44.31C148.32 47.57 145.67 50.23 142.4 50.23H136.84C134.81 50.23 133.16 51.88 133.16 53.91V82.55C133.16 85.61 131.21 88.32 128.31 89.3L91.13 101.81C89.69 102.29 88.74 103.53 88.63 105.04C88.53 106.55 89.31 107.91 90.66 108.58L144.35 135.24C146.79 136.45 148.31 138.89 148.31 141.62V191.43C148.31 195.36 145.11 198.55 141.19 198.55H141.2ZM104.45 49.73C105.5 49.73 106.5 50.15 107.26 50.91C108.08 51.72 108.55 52.85 108.55 54.01V69.67C108.55 71.46 107.41 73.06 105.71 73.63L68.31 86.22C60.81 88.74 55.77 95.75 55.77 103.66V104.48C55.77 111.52 59.69 117.83 65.99 120.96L96.64 136.18C98.05 136.87 98.96 138.34 98.96 139.92V191.44C98.96 195.09 101.93 198.06 105.58 198.06H141.19C144.84 198.06 147.81 195.09 147.81 191.44V141.63C147.81 139.1 146.4 136.82 144.13 135.7L90.44 109.04C88.9 108.27 88.01 106.73 88.13 105.01C88.25 103.29 89.33 101.89 90.97 101.34L128.15 88.83C130.85 87.92 132.66 85.4 132.66 82.55V53.91C132.66 51.61 134.53 49.73 136.84 49.73H142.4C145.39 49.73 147.82 47.3 147.82 44.31V7.12C147.82 3.47 144.85 0.5 141.2 0.5H105.59C101.94 0.5 98.97 3.47 98.97 7.12V44.31C98.97 45.76 99.53 47.12 100.56 48.14C101.57 49.16 102.93 49.73 104.39 49.73C104.42 49.73 104.44 49.73 104.47 49.73H104.45Z" fill="url(#paint2_radial_4_17)"/>
</g>
<defs>
<radialGradient id="paint0_radial_4_17" cx="0" cy="0" r="1" gradientUnits="userSpaceOnUse" gradientTransform="translate(270.69 -229.42) scale(714.48 714.48)">
<stop stop-color="#7758E1"/>
<stop offset="0.26" stop-color="#732FD8"/>
<stop offset="0.45" stop-color="#7216D3"/>
<stop offset="0.49" stop-color="#6814C2"/>
<stop offset="0.62" stop-color="#480F8A"/>
<stop offset="0.74" stop-color="#2F0B5E"/>
<stop offset="0.85" stop-color="#1D093F"/>
<stop offset="0.94" stop-color="#11072B"/>
<stop offset="1" stop-color="#0E0725"/>
</radialGradient>
<radialGradient id="paint1_radial_4_17" cx="0" cy="0" r="1" gradientUnits="userSpaceOnUse" gradientTransform="translate(270.69 0.499982) scale(714.48 714.48)">
<stop stop-color="#7758E1"/>
<stop offset="0.26" stop-color="#732FD8"/>
<stop offset="0.45" stop-color="#7216D3"/>
<stop offset="0.49" stop-color="#6814C2"/>
<stop offset="0.62" stop-color="#480F8A"/>
<stop offset="0.74" stop-color="#2F0B5E"/>
<stop offset="0.85" stop-color="#1D093F"/>
<stop offset="0.94" stop-color="#11072B"/>
<stop offset="1" stop-color="#0E0725"/>
</radialGradient>
<radialGradient id="paint2_radial_4_17" cx="0" cy="0" r="1" gradientUnits="userSpaceOnUse" gradientTransform="translate(270.69 -229.42) scale(714.48 714.48)">
<stop stop-color="#7758E1"/>
<stop offset="0.26" stop-color="#732FD8"/>
<stop offset="0.45" stop-color="#7216D3"/>
<stop offset="0.49" stop-color="#6814C2"/>
<stop offset="0.62" stop-color="#480F8A"/>
<stop offset="0.74" stop-color="#2F0B5E"/>
<stop offset="0.85" stop-color="#1D093F"/>
<stop offset="0.94" stop-color="#11072B"/>
<stop offset="1" stop-color="#0E0725"/>
</radialGradient>
<clipPath id="clip0_4_17">
<rect width="652.77" height="198.55" fill="white"/>
</clipPath>
</defs>
</svg>
