<svg width="459" height="343" viewBox="0 0 459 343" fill="none" xmlns="http://www.w3.org/2000/svg">
<g clip-path="url(#clip0_4_146)">
<path d="M18.2001 340.445H0.100098V244.435H18.2001V283.805H22.1801L47.5601 244.435H68.0001V245.255L38.3701 291.205V293.675L69.6401 339.625V340.445H48.3801L22.1801 301.075H18.2001V340.445Z" fill="white"/>
<path d="M124.64 272.415H141.92V340.445H124.64V330.565H122.17C119.15 338.435 112.66 342.365 102.69 342.365C99.3101 342.365 96.1501 341.815 93.2301 340.715C90.3001 339.615 87.7401 337.925 85.5501 335.635C83.3601 333.355 81.6401 330.495 80.4101 327.065C79.1801 323.635 78.5601 319.585 78.5601 314.925V272.405H95.8401V311.355C95.8401 316.205 96.9801 319.975 99.2701 322.675C101.56 325.375 104.98 326.725 109.56 326.725C114.77 326.725 118.59 325.055 121.01 321.715C123.43 318.375 124.64 313.825 124.64 308.065V272.405V272.415Z" fill="white"/>
<path d="M171.28 340.445H154V244.435H171.28V282.295H173.75C175.58 278.545 178.23 275.645 181.71 273.585C185.18 271.525 189.62 270.495 195.01 270.495C199.03 270.495 202.85 271.275 206.46 272.825C210.07 274.385 213.23 276.645 215.92 279.615C218.62 282.585 220.76 286.225 222.37 290.515C223.97 294.815 224.77 299.705 224.77 305.195V307.665C224.77 313.245 223.99 318.185 222.44 322.475C220.88 326.775 218.78 330.405 216.13 333.375C213.48 336.345 210.35 338.585 206.73 340.095C203.12 341.605 199.21 342.355 195 342.355C191.89 342.355 189.19 342.035 186.91 341.395C184.62 340.755 182.63 339.885 180.94 338.785C179.25 337.685 177.83 336.435 176.69 335.015C175.55 333.595 174.56 332.115 173.74 330.555H171.27V340.435L171.28 340.445ZM189.38 325.905C194.77 325.905 199.14 324.235 202.48 320.895C205.82 317.555 207.49 313.005 207.49 307.245V305.595C207.49 299.835 205.82 295.285 202.48 291.945C199.14 288.605 194.78 286.935 189.38 286.935C183.98 286.935 179.62 288.645 176.28 292.075C172.94 295.505 171.27 300.005 171.27 305.585V307.235C171.27 312.815 172.94 317.315 176.28 320.745C179.62 324.175 183.98 325.885 189.38 325.885V325.905Z" fill="white"/>
<path d="M284.02 330.565H281.55C280.82 332.125 279.93 333.605 278.88 335.025C277.83 336.445 276.46 337.695 274.76 338.795C273.07 339.895 271.06 340.755 268.73 341.405C266.4 342.045 263.59 342.365 260.29 342.365C256.08 342.365 252.17 341.615 248.56 340.105C244.95 338.595 241.79 336.355 239.1 333.385C236.4 330.415 234.3 326.775 232.79 322.485C231.28 318.185 230.53 313.255 230.53 307.675V305.205C230.53 299.715 231.33 294.825 232.93 290.525C234.53 286.225 236.72 282.595 239.51 279.625C242.3 276.655 245.55 274.395 249.25 272.835C252.95 271.285 256.86 270.505 260.98 270.505C266.47 270.505 270.81 271.535 274.01 273.595C277.21 275.655 279.72 278.555 281.55 282.305H284.02V244.445H301.3V340.455H284.02V330.575V330.565ZM265.91 325.905C271.3 325.905 275.67 324.195 279.01 320.765C282.35 317.335 284.02 312.835 284.02 307.255V305.605C284.02 300.025 282.35 295.525 279.01 292.095C275.67 288.665 271.31 286.955 265.91 286.955C260.51 286.955 256.15 288.625 252.81 291.965C249.47 295.305 247.8 299.855 247.8 305.615V307.265C247.8 313.025 249.47 317.575 252.81 320.915C256.15 324.255 260.51 325.925 265.91 325.925V325.905Z" fill="white"/>
<path d="M328.73 312.055C328.82 314.065 329.3 315.915 330.17 317.605C331.04 319.295 332.23 320.755 333.74 321.995C335.25 323.235 336.98 324.195 338.95 324.875C340.91 325.565 343 325.905 345.19 325.905C349.49 325.905 352.78 325.155 355.07 323.645C357.35 322.135 359 320.335 360.01 318.225L374.82 326.455C374 328.195 372.85 329.995 371.39 331.875C369.93 333.755 368.03 335.465 365.7 337.015C363.37 338.575 360.53 339.845 357.2 340.855C353.86 341.865 349.95 342.365 345.47 342.365C340.35 342.365 335.68 341.545 331.48 339.895C327.27 338.245 323.64 335.875 320.58 332.765C317.52 329.655 315.14 325.865 313.45 321.385C311.76 316.905 310.91 311.835 310.91 306.165V305.345C310.91 300.135 311.8 295.385 313.58 291.085C315.36 286.785 317.81 283.125 320.92 280.115C324.03 277.095 327.66 274.745 331.82 273.055C335.98 271.365 340.44 270.515 345.19 270.515C351.04 270.515 356.07 271.545 360.28 273.605C364.49 275.665 367.96 278.265 370.7 281.425C373.44 284.575 375.45 288.055 376.74 291.845C378.02 295.645 378.66 299.325 378.66 302.885V312.075H328.73V312.055ZM345.05 286.135C340.66 286.135 337.09 287.255 334.35 289.495C331.61 291.735 329.82 294.315 329 297.245H361.1C360.55 294.045 358.84 291.395 355.96 289.285C353.08 287.185 349.44 286.125 345.06 286.125L345.05 286.135Z" fill="white"/>
<path d="M387.03 272.415H405.68L421.73 332.215H424.2L440.25 272.415H458.9L439.42 340.445H406.5L387.02 272.415H387.03Z" fill="white"/>
<path d="M204.7 7.34504V191.655C204.7 195.455 201.62 198.525 197.83 198.525H162.22C158.42 198.525 155.35 195.445 155.35 191.655V154.335C155.35 151.385 157.23 148.765 160.03 147.825L180.1 141.075V100.985L179.9 100.885L159.16 90.585C156.82 89.425 155.34 87.045 155.34 84.425V7.34504C155.34 3.54504 158.42 0.475037 162.21 0.475037H197.82C201.62 0.475037 204.69 3.55504 204.69 7.34504H204.7Z" fill="url(#paint0_radial_4_146)"/>
<path d="M254.05 99.215L246.39 101.785C243.07 102.905 242.76 107.465 245.89 109.025L254.04 113.075L257.77 114.935L263.63 117.845L288.24 130.065L299.57 135.695C301.91 136.855 303.39 139.235 303.39 141.855V191.665C303.39 195.465 300.31 198.535 296.52 198.535H260.91C257.11 198.535 254.04 195.455 254.04 191.665V140.145C254.04 138.655 253.2 137.285 251.86 136.635L228.21 124.895L221.21 121.415C214.87 118.265 210.85 111.795 210.85 104.705V103.885C210.85 95.875 215.96 88.755 223.56 86.205L254.04 75.945L260.96 73.615C262.56 73.075 263.63 71.575 263.63 69.895V54.235C263.63 52.065 261.92 50.195 259.75 50.205C258.16 50.215 256.73 49.585 255.7 48.545C254.68 47.525 254.04 46.105 254.04 44.535V7.34504C254.04 3.54504 257.12 0.475037 260.91 0.475037H296.52C300.32 0.475037 303.39 3.55504 303.39 7.34504V44.535C303.39 47.665 300.85 50.205 297.72 50.205H292.16C289.99 50.205 288.23 51.965 288.23 54.135V82.775C288.23 85.725 286.35 88.345 283.55 89.285L263.62 95.985L254.03 99.215H254.05Z" fill="url(#paint1_radial_4_146)"/>
<path d="M296.54 198.775H260.93C257 198.775 253.81 195.575 253.81 191.655V140.135C253.81 138.745 253.01 137.455 251.77 136.845L221.12 121.625C214.65 118.415 210.62 111.925 210.62 104.695V103.875C210.62 95.745 215.79 88.545 223.5 85.955L260.9 73.365C262.4 72.865 263.4 71.465 263.4 69.885V54.225C263.4 53.205 262.98 52.205 262.26 51.485C261.59 50.815 260.71 50.455 259.8 50.455C259.77 50.455 259.75 50.455 259.72 50.455C258.13 50.455 256.65 49.845 255.54 48.725C254.42 47.605 253.81 46.125 253.81 44.545V7.34504C253.81 3.41504 257.01 0.225037 260.93 0.225037H296.54C300.47 0.225037 303.66 3.42504 303.66 7.34504V44.535C303.66 47.795 301.01 50.455 297.74 50.455H292.18C290.15 50.455 288.5 52.105 288.5 54.135V82.775C288.5 85.835 286.55 88.545 283.65 89.525L246.47 102.035C245.03 102.515 244.08 103.755 243.97 105.265C243.87 106.775 244.65 108.135 246 108.805L299.69 135.465C302.13 136.675 303.65 139.115 303.65 141.845V191.655C303.65 195.585 300.45 198.775 296.53 198.775H296.54ZM259.8 49.955C260.85 49.955 261.85 50.375 262.61 51.135C263.43 51.945 263.9 53.075 263.9 54.235V69.895C263.9 71.685 262.76 73.285 261.06 73.855L223.66 86.445C216.16 88.965 211.12 95.975 211.12 103.885V104.705C211.12 111.745 215.04 118.055 221.34 121.185L251.99 136.405C253.4 137.095 254.31 138.565 254.31 140.145V191.665C254.31 195.315 257.28 198.285 260.93 198.285H296.54C300.19 198.285 303.16 195.315 303.16 191.665V141.855C303.16 139.325 301.75 137.045 299.48 135.925L245.79 109.265C244.25 108.495 243.36 106.955 243.48 105.235C243.6 103.515 244.68 102.115 246.32 101.565L283.5 89.055C286.2 88.145 288.01 85.625 288.01 82.775V54.135C288.01 51.835 289.88 49.955 292.19 49.955H297.75C300.74 49.955 303.17 47.525 303.17 44.535V7.34504C303.17 3.69504 300.2 0.725037 296.55 0.725037H260.94C257.29 0.725037 254.32 3.69504 254.32 7.34504V44.535C254.32 45.985 254.88 47.345 255.91 48.365C256.92 49.385 258.28 49.955 259.74 49.955C259.77 49.955 259.79 49.955 259.82 49.955H259.8Z" fill="url(#paint2_radial_4_146)"/>
<g clip-path="url(#clip1_4_146)">
<path d="M23.2001 340.195H5.1001V244.185H23.2001V283.555H27.1801L52.5601 244.185H73.0001V245.005L43.3701 290.955V293.425L74.6401 339.375V340.195H53.3801L27.1801 300.825H23.2001V340.195Z" fill="white"/>
<path d="M129.64 272.165H146.92V340.195H129.64V330.315H127.17C124.15 338.185 117.66 342.115 107.69 342.115C104.31 342.115 101.15 341.565 98.2301 340.465C95.3001 339.365 92.7401 337.675 90.5501 335.385C88.3601 333.105 86.6401 330.245 85.4101 326.815C84.1801 323.385 83.5601 319.335 83.5601 314.675V272.155H100.84V311.105C100.84 315.955 101.98 319.725 104.27 322.425C106.56 325.125 109.98 326.475 114.56 326.475C119.77 326.475 123.59 324.805 126.01 321.465C128.43 318.125 129.64 313.575 129.64 307.815V272.155V272.165Z" fill="white"/>
<path d="M176.28 340.195H159V244.185H176.28V282.045H178.75C180.58 278.295 183.23 275.395 186.71 273.335C190.18 271.275 194.62 270.245 200.01 270.245C204.03 270.245 207.85 271.025 211.46 272.575C215.07 274.135 218.23 276.395 220.92 279.365C223.62 282.335 225.76 285.975 227.37 290.265C228.97 294.565 229.77 299.455 229.77 304.945V307.415C229.77 312.995 228.99 317.935 227.44 322.225C225.88 326.525 223.78 330.155 221.13 333.125C218.48 336.095 215.35 338.335 211.73 339.845C208.12 341.355 204.21 342.105 200 342.105C196.89 342.105 194.19 341.785 191.91 341.145C189.62 340.505 187.63 339.635 185.94 338.535C184.25 337.435 182.83 336.185 181.69 334.765C180.55 333.345 179.56 331.865 178.74 330.305H176.27V340.185L176.28 340.195ZM194.38 325.655C199.77 325.655 204.14 323.985 207.48 320.645C210.82 317.305 212.49 312.755 212.49 306.995V305.345C212.49 299.585 210.82 295.035 207.48 291.695C204.14 288.355 199.78 286.685 194.38 286.685C188.98 286.685 184.62 288.395 181.28 291.825C177.94 295.255 176.27 299.755 176.27 305.335V306.985C176.27 312.565 177.94 317.065 181.28 320.495C184.62 323.925 188.98 325.635 194.38 325.635V325.655Z" fill="white"/>
<path d="M289.02 330.325H286.55C285.82 331.885 284.93 333.365 283.88 334.785C282.83 336.205 281.46 337.455 279.76 338.555C278.07 339.655 276.06 340.515 273.73 341.165C271.4 341.805 268.59 342.125 265.29 342.125C261.08 342.125 257.17 341.375 253.56 339.865C249.95 338.355 246.79 336.115 244.1 333.145C241.4 330.175 239.3 326.535 237.79 322.245C236.28 317.945 235.53 313.015 235.53 307.435V304.965C235.53 299.475 236.33 294.585 237.93 290.285C239.53 285.985 241.72 282.355 244.51 279.385C247.3 276.415 250.55 274.155 254.25 272.595C257.95 271.045 261.86 270.265 265.98 270.265C271.47 270.265 275.81 271.295 279.01 273.355C282.21 275.415 284.72 278.315 286.55 282.065H289.02V244.205H306.3V340.215H289.02V330.335V330.325ZM270.91 325.665C276.3 325.665 280.67 323.955 284.01 320.525C287.35 317.095 289.02 312.595 289.02 307.015V305.365C289.02 299.785 287.35 295.285 284.01 291.855C280.67 288.425 276.31 286.715 270.91 286.715C265.51 286.715 261.15 288.385 257.81 291.725C254.47 295.065 252.8 299.615 252.8 305.375V307.025C252.8 312.785 254.47 317.335 257.81 320.675C261.15 324.015 265.51 325.685 270.91 325.685V325.665Z" fill="white"/>
<path d="M333.73 311.805C333.82 313.815 334.3 315.665 335.17 317.355C336.04 319.045 337.23 320.505 338.74 321.745C340.25 322.985 341.98 323.945 343.95 324.625C345.91 325.315 348 325.655 350.19 325.655C354.49 325.655 357.78 324.905 360.07 323.395C362.35 321.885 364 320.085 365.01 317.975L379.82 326.205C379 327.945 377.85 329.745 376.39 331.625C374.93 333.505 373.03 335.215 370.7 336.765C368.37 338.325 365.53 339.595 362.2 340.605C358.86 341.615 354.95 342.115 350.47 342.115C345.35 342.115 340.68 341.295 336.48 339.645C332.27 337.995 328.64 335.625 325.58 332.515C322.52 329.405 320.14 325.615 318.45 321.135C316.76 316.655 315.91 311.585 315.91 305.915V305.095C315.91 299.885 316.8 295.135 318.58 290.835C320.36 286.535 322.81 282.875 325.92 279.865C329.03 276.845 332.66 274.495 336.82 272.805C340.98 271.115 345.44 270.265 350.19 270.265C356.04 270.265 361.07 271.295 365.28 273.355C369.49 275.415 372.96 278.015 375.7 281.175C378.44 284.325 380.45 287.805 381.74 291.595C383.02 295.395 383.66 299.075 383.66 302.635V311.825H333.73V311.805ZM350.05 285.885C345.66 285.885 342.09 287.005 339.35 289.245C336.61 291.485 334.82 294.065 334 296.995H366.1C365.55 293.795 363.84 291.145 360.96 289.035C358.08 286.935 354.44 285.875 350.06 285.875L350.05 285.885Z" fill="white"/>
<path d="M392.03 272.165H410.68L426.73 331.965H429.2L445.25 272.165H463.9L444.42 340.195H411.5L392.02 272.165H392.03Z" fill="white"/>
<path d="M209.82 7.09504V191.405C209.82 195.205 206.74 198.275 202.95 198.275H167.34C163.54 198.275 160.47 195.195 160.47 191.405V154.085C160.47 151.135 162.35 148.515 165.15 147.575L185.22 140.825V100.735L185.02 100.635L164.28 90.335C161.94 89.175 160.46 86.795 160.46 84.175V7.09504C160.46 3.29504 163.54 0.225037 167.33 0.225037H202.94C206.74 0.225037 209.81 3.30504 209.81 7.09504H209.82Z" fill="#41FA7E"/>
<path d="M259.18 98.965L251.52 101.535C248.2 102.655 247.89 107.215 251.02 108.775L259.17 112.825L262.9 114.685L268.76 117.595L293.37 129.815L304.7 135.445C307.04 136.605 308.52 138.985 308.52 141.605V191.415C308.52 195.215 305.44 198.285 301.65 198.285H266.04C262.24 198.285 259.17 195.205 259.17 191.415V139.895C259.17 138.405 258.33 137.035 256.99 136.385L233.34 124.645L226.34 121.165C220 118.015 215.98 111.545 215.98 104.455V103.635C215.98 95.625 221.09 88.505 228.69 85.955L259.17 75.695L266.09 73.365C267.69 72.825 268.76 71.325 268.76 69.645V53.985C268.76 51.815 267.05 49.945 264.88 49.955C263.29 49.965 261.86 49.335 260.83 48.295C259.81 47.275 259.17 45.855 259.17 44.285V7.09504C259.17 3.29504 262.25 0.225037 266.04 0.225037H301.65C305.45 0.225037 308.52 3.30504 308.52 7.09504V44.285C308.52 47.415 305.98 49.955 302.85 49.955H297.29C295.12 49.955 293.36 51.715 293.36 53.885V82.525C293.36 85.475 291.48 88.095 288.68 89.035L268.75 95.735L259.16 98.965H259.18Z" fill="#41FA7E"/>
<g clip-path="url(#clip2_4_146)">
<path d="M23.2001 340.195H5.1001V244.185H23.2001V283.555H27.1801L52.5601 244.185H73.0001V245.005L43.3701 290.955V293.425L74.6401 339.375V340.195H53.3801L27.1801 300.825H23.2001V340.195Z" fill="white"/>
<path d="M129.64 272.165H146.92V340.195H129.64V330.315H127.17C124.15 338.185 117.66 342.115 107.69 342.115C104.31 342.115 101.15 341.565 98.2301 340.465C95.3001 339.365 92.7401 337.675 90.5501 335.385C88.3601 333.105 86.6401 330.245 85.4101 326.815C84.1801 323.385 83.5601 319.335 83.5601 314.675V272.155H100.84V311.105C100.84 315.955 101.98 319.725 104.27 322.425C106.56 325.125 109.98 326.475 114.56 326.475C119.77 326.475 123.59 324.805 126.01 321.465C128.43 318.125 129.64 313.575 129.64 307.815V272.155V272.165Z" fill="white"/>
<path d="M176.28 340.195H159V244.185H176.28V282.045H178.75C180.58 278.295 183.23 275.395 186.71 273.335C190.18 271.275 194.62 270.245 200.01 270.245C204.03 270.245 207.85 271.025 211.46 272.575C215.07 274.135 218.23 276.395 220.92 279.365C223.62 282.335 225.76 285.975 227.37 290.265C228.97 294.565 229.77 299.455 229.77 304.945V307.415C229.77 312.995 228.99 317.935 227.44 322.225C225.88 326.525 223.78 330.155 221.13 333.125C218.48 336.095 215.35 338.335 211.73 339.845C208.12 341.355 204.21 342.105 200 342.105C196.89 342.105 194.19 341.785 191.91 341.145C189.62 340.505 187.63 339.635 185.94 338.535C184.25 337.435 182.83 336.185 181.69 334.765C180.55 333.345 179.56 331.865 178.74 330.305H176.27V340.185L176.28 340.195ZM194.38 325.655C199.77 325.655 204.14 323.985 207.48 320.645C210.82 317.305 212.49 312.755 212.49 306.995V305.345C212.49 299.585 210.82 295.035 207.48 291.695C204.14 288.355 199.78 286.685 194.38 286.685C188.98 286.685 184.62 288.395 181.28 291.825C177.94 295.255 176.27 299.755 176.27 305.335V306.985C176.27 312.565 177.94 317.065 181.28 320.495C184.62 323.925 188.98 325.635 194.38 325.635V325.655Z" fill="white"/>
<path d="M289.02 330.325H286.55C285.82 331.885 284.93 333.365 283.88 334.785C282.83 336.205 281.46 337.455 279.76 338.555C278.07 339.655 276.06 340.515 273.73 341.165C271.4 341.805 268.59 342.125 265.29 342.125C261.08 342.125 257.17 341.375 253.56 339.865C249.95 338.355 246.79 336.115 244.1 333.145C241.4 330.175 239.3 326.535 237.79 322.245C236.28 317.945 235.53 313.015 235.53 307.435V304.965C235.53 299.475 236.33 294.585 237.93 290.285C239.53 285.985 241.72 282.355 244.51 279.385C247.3 276.415 250.55 274.155 254.25 272.595C257.95 271.045 261.86 270.265 265.98 270.265C271.47 270.265 275.81 271.295 279.01 273.355C282.21 275.415 284.72 278.315 286.55 282.065H289.02V244.205H306.3V340.215H289.02V330.335V330.325ZM270.91 325.665C276.3 325.665 280.67 323.955 284.01 320.525C287.35 317.095 289.02 312.595 289.02 307.015V305.365C289.02 299.785 287.35 295.285 284.01 291.855C280.67 288.425 276.31 286.715 270.91 286.715C265.51 286.715 261.15 288.385 257.81 291.725C254.47 295.065 252.8 299.615 252.8 305.375V307.025C252.8 312.785 254.47 317.335 257.81 320.675C261.15 324.015 265.51 325.685 270.91 325.685V325.665Z" fill="white"/>
<path d="M333.73 311.805C333.82 313.815 334.3 315.665 335.17 317.355C336.04 319.045 337.23 320.505 338.74 321.745C340.25 322.985 341.98 323.945 343.95 324.625C345.91 325.315 348 325.655 350.19 325.655C354.49 325.655 357.78 324.905 360.07 323.395C362.35 321.885 364 320.085 365.01 317.975L379.82 326.205C379 327.945 377.85 329.745 376.39 331.625C374.93 333.505 373.03 335.215 370.7 336.765C368.37 338.325 365.53 339.595 362.2 340.605C358.86 341.615 354.95 342.115 350.47 342.115C345.35 342.115 340.68 341.295 336.48 339.645C332.27 337.995 328.64 335.625 325.58 332.515C322.52 329.405 320.14 325.615 318.45 321.135C316.76 316.655 315.91 311.585 315.91 305.915V305.095C315.91 299.885 316.8 295.135 318.58 290.835C320.36 286.535 322.81 282.875 325.92 279.865C329.03 276.845 332.66 274.495 336.82 272.805C340.98 271.115 345.44 270.265 350.19 270.265C356.04 270.265 361.07 271.295 365.28 273.355C369.49 275.415 372.96 278.015 375.7 281.175C378.44 284.325 380.45 287.805 381.74 291.595C383.02 295.395 383.66 299.075 383.66 302.635V311.825H333.73V311.805ZM350.05 285.885C345.66 285.885 342.09 287.005 339.35 289.245C336.61 291.485 334.82 294.065 334 296.995H366.1C365.55 293.795 363.84 291.145 360.96 289.035C358.08 286.935 354.44 285.875 350.06 285.875L350.05 285.885Z" fill="white"/>
<path d="M392.03 272.165H410.68L426.73 331.965H429.2L445.25 272.165H463.9L444.42 340.195H411.5L392.02 272.165H392.03Z" fill="white"/>
<path d="M209.82 7.09504V191.405C209.82 195.205 206.74 198.275 202.95 198.275H167.34C163.54 198.275 160.47 195.195 160.47 191.405V154.085C160.47 151.135 162.35 148.515 165.15 147.575L185.22 140.825V100.735L185.02 100.635L164.28 90.335C161.94 89.175 160.46 86.795 160.46 84.175V7.09504C160.46 3.29504 163.54 0.225037 167.33 0.225037H202.94C206.74 0.225037 209.81 3.30504 209.81 7.09504H209.82Z" fill="#7216D3"/>
<path d="M259.18 98.965L251.52 101.535C248.2 102.655 247.89 107.215 251.02 108.775L259.17 112.825L262.9 114.685L268.76 117.595L293.37 129.815L304.7 135.445C307.04 136.605 308.52 138.985 308.52 141.605V191.415C308.52 195.215 305.44 198.285 301.65 198.285H266.04C262.24 198.285 259.17 195.205 259.17 191.415V139.895C259.17 138.405 258.33 137.035 256.99 136.385L233.34 124.645L226.34 121.165C220 118.015 215.98 111.545 215.98 104.455V103.635C215.98 95.625 221.09 88.505 228.69 85.955L259.17 75.695L266.09 73.365C267.69 72.825 268.76 71.325 268.76 69.645V53.985C268.76 51.815 267.05 49.945 264.88 49.955C263.29 49.965 261.86 49.335 260.83 48.295C259.81 47.275 259.17 45.855 259.17 44.285V7.09504C259.17 3.29504 262.25 0.225037 266.04 0.225037H301.65C305.45 0.225037 308.52 3.30504 308.52 7.09504V44.285C308.52 47.415 305.98 49.955 302.85 49.955H297.29C295.12 49.955 293.36 51.715 293.36 53.885V82.525C293.36 85.475 291.48 88.095 288.68 89.035L268.75 95.735L259.16 98.965H259.18Z" fill="#7216D3"/>
<g clip-path="url(#clip3_4_146)">
<path d="M23.2001 340.195H5.1001V244.185H23.2001V283.555H27.1801L52.5601 244.185H73.0001V245.005L43.3701 290.955V293.425L74.6401 339.375V340.195H53.3801L27.1801 300.825H23.2001V340.195Z" fill="white"/>
<path d="M129.64 272.165H146.92V340.195H129.64V330.315H127.17C124.15 338.185 117.66 342.115 107.69 342.115C104.31 342.115 101.15 341.565 98.2301 340.465C95.3001 339.365 92.7401 337.675 90.5501 335.385C88.3601 333.105 86.6401 330.245 85.4101 326.815C84.1801 323.385 83.5601 319.335 83.5601 314.675V272.155H100.84V311.105C100.84 315.955 101.98 319.725 104.27 322.425C106.56 325.125 109.98 326.475 114.56 326.475C119.77 326.475 123.59 324.805 126.01 321.465C128.43 318.125 129.64 313.575 129.64 307.815V272.155V272.165Z" fill="white"/>
<path d="M176.28 340.195H159V244.185H176.28V282.045H178.75C180.58 278.295 183.23 275.395 186.71 273.335C190.18 271.275 194.62 270.245 200.01 270.245C204.03 270.245 207.85 271.025 211.46 272.575C215.07 274.135 218.23 276.395 220.92 279.365C223.62 282.335 225.76 285.975 227.37 290.265C228.97 294.565 229.77 299.455 229.77 304.945V307.415C229.77 312.995 228.99 317.935 227.44 322.225C225.88 326.525 223.78 330.155 221.13 333.125C218.48 336.095 215.35 338.335 211.73 339.845C208.12 341.355 204.21 342.105 200 342.105C196.89 342.105 194.19 341.785 191.91 341.145C189.62 340.505 187.63 339.635 185.94 338.535C184.25 337.435 182.83 336.185 181.69 334.765C180.55 333.345 179.56 331.865 178.74 330.305H176.27V340.185L176.28 340.195ZM194.38 325.655C199.77 325.655 204.14 323.985 207.48 320.645C210.82 317.305 212.49 312.755 212.49 306.995V305.345C212.49 299.585 210.82 295.035 207.48 291.695C204.14 288.355 199.78 286.685 194.38 286.685C188.98 286.685 184.62 288.395 181.28 291.825C177.94 295.255 176.27 299.755 176.27 305.335V306.985C176.27 312.565 177.94 317.065 181.28 320.495C184.62 323.925 188.98 325.635 194.38 325.635V325.655Z" fill="white"/>
<path d="M289.02 330.325H286.55C285.82 331.885 284.93 333.365 283.88 334.785C282.83 336.205 281.46 337.455 279.76 338.555C278.07 339.655 276.06 340.515 273.73 341.165C271.4 341.805 268.59 342.125 265.29 342.125C261.08 342.125 257.17 341.375 253.56 339.865C249.95 338.355 246.79 336.115 244.1 333.145C241.4 330.175 239.3 326.535 237.79 322.245C236.28 317.945 235.53 313.015 235.53 307.435V304.965C235.53 299.475 236.33 294.585 237.93 290.285C239.53 285.985 241.72 282.355 244.51 279.385C247.3 276.415 250.55 274.155 254.25 272.595C257.95 271.045 261.86 270.265 265.98 270.265C271.47 270.265 275.81 271.295 279.01 273.355C282.21 275.415 284.72 278.315 286.55 282.065H289.02V244.205H306.3V340.215H289.02V330.335V330.325ZM270.91 325.665C276.3 325.665 280.67 323.955 284.01 320.525C287.35 317.095 289.02 312.595 289.02 307.015V305.365C289.02 299.785 287.35 295.285 284.01 291.855C280.67 288.425 276.31 286.715 270.91 286.715C265.51 286.715 261.15 288.385 257.81 291.725C254.47 295.065 252.8 299.615 252.8 305.375V307.025C252.8 312.785 254.47 317.335 257.81 320.675C261.15 324.015 265.51 325.685 270.91 325.685V325.665Z" fill="white"/>
<path d="M333.73 311.805C333.82 313.815 334.3 315.665 335.17 317.355C336.04 319.045 337.23 320.505 338.74 321.745C340.25 322.985 341.98 323.945 343.95 324.625C345.91 325.315 348 325.655 350.19 325.655C354.49 325.655 357.78 324.905 360.07 323.395C362.35 321.885 364 320.085 365.01 317.975L379.82 326.205C379 327.945 377.85 329.745 376.39 331.625C374.93 333.505 373.03 335.215 370.7 336.765C368.37 338.325 365.53 339.595 362.2 340.605C358.86 341.615 354.95 342.115 350.47 342.115C345.35 342.115 340.68 341.295 336.48 339.645C332.27 337.995 328.64 335.625 325.58 332.515C322.52 329.405 320.14 325.615 318.45 321.135C316.76 316.655 315.91 311.585 315.91 305.915V305.095C315.91 299.885 316.8 295.135 318.58 290.835C320.36 286.535 322.81 282.875 325.92 279.865C329.03 276.845 332.66 274.495 336.82 272.805C340.98 271.115 345.44 270.265 350.19 270.265C356.04 270.265 361.07 271.295 365.28 273.355C369.49 275.415 372.96 278.015 375.7 281.175C378.44 284.325 380.45 287.805 381.74 291.595C383.02 295.395 383.66 299.075 383.66 302.635V311.825H333.73V311.805ZM350.05 285.885C345.66 285.885 342.09 287.005 339.35 289.245C336.61 291.485 334.82 294.065 334 296.995H366.1C365.55 293.795 363.84 291.145 360.96 289.035C358.08 286.935 354.44 285.875 350.06 285.875L350.05 285.885Z" fill="white"/>
<path d="M392.03 272.165H410.68L426.73 331.965H429.2L445.25 272.165H463.9L444.42 340.195H411.5L392.02 272.165H392.03Z" fill="white"/>
<path d="M209.82 7.09504V191.405C209.82 195.205 206.74 198.275 202.95 198.275H167.34C163.54 198.275 160.47 195.195 160.47 191.405V154.085C160.47 151.135 162.35 148.515 165.15 147.575L185.22 140.825V100.735L185.02 100.635L164.28 90.335C161.94 89.175 160.46 86.795 160.46 84.175V7.09504C160.46 3.29504 163.54 0.225037 167.33 0.225037H202.94C206.74 0.225037 209.81 3.30504 209.81 7.09504H209.82Z" fill="white"/>
<path d="M259.18 98.965L251.52 101.535C248.2 102.655 247.89 107.215 251.02 108.775L259.17 112.825L262.9 114.685L268.76 117.595L293.37 129.815L304.7 135.445C307.04 136.605 308.52 138.985 308.52 141.605V191.415C308.52 195.215 305.44 198.285 301.65 198.285H266.04C262.24 198.285 259.17 195.205 259.17 191.415V139.895C259.17 138.405 258.33 137.035 256.99 136.385L233.34 124.645L226.34 121.165C220 118.015 215.98 111.545 215.98 104.455V103.635C215.98 95.625 221.09 88.505 228.69 85.955L259.17 75.695L266.09 73.365C267.69 72.825 268.76 71.325 268.76 69.645V53.985C268.76 51.815 267.05 49.945 264.88 49.955C263.29 49.965 261.86 49.335 260.83 48.295C259.81 47.275 259.17 45.855 259.17 44.285V7.09504C259.17 3.29504 262.25 0.225037 266.04 0.225037H301.65C305.45 0.225037 308.52 3.30504 308.52 7.09504V44.285C308.52 47.415 305.98 49.955 302.85 49.955H297.29C295.12 49.955 293.36 51.715 293.36 53.885V82.525C293.36 85.475 291.48 88.095 288.68 89.035L268.75 95.735L259.16 98.965H259.18Z" fill="white"/>
</g>
</g>
</g>
</g>
<defs>
<radialGradient id="paint0_radial_4_146" cx="0" cy="0" r="1" gradientUnits="userSpaceOnUse" gradientTransform="translate(426.03 -229.195) scale(714.48 714.48)">
<stop stop-color="#7758E1"/>
<stop offset="0.26" stop-color="#732FD8"/>
<stop offset="0.45" stop-color="#7216D3"/>
<stop offset="0.49" stop-color="#6814C2"/>
<stop offset="0.62" stop-color="#480F8A"/>
<stop offset="0.74" stop-color="#2F0B5E"/>
<stop offset="0.85" stop-color="#1D093F"/>
<stop offset="0.94" stop-color="#11072B"/>
<stop offset="1" stop-color="#0E0725"/>
</radialGradient>
<radialGradient id="paint1_radial_4_146" cx="0" cy="0" r="1" gradientUnits="userSpaceOnUse" gradientTransform="translate(426.03 0.725018) scale(714.48 714.48)">
<stop stop-color="#7758E1"/>
<stop offset="0.26" stop-color="#732FD8"/>
<stop offset="0.45" stop-color="#7216D3"/>
<stop offset="0.49" stop-color="#6814C2"/>
<stop offset="0.62" stop-color="#480F8A"/>
<stop offset="0.74" stop-color="#2F0B5E"/>
<stop offset="0.85" stop-color="#1D093F"/>
<stop offset="0.94" stop-color="#11072B"/>
<stop offset="1" stop-color="#0E0725"/>
</radialGradient>
<radialGradient id="paint2_radial_4_146" cx="0" cy="0" r="1" gradientUnits="userSpaceOnUse" gradientTransform="translate(0.600122 -229.195) scale(714.48 714.48)">
<stop stop-color="#7758E1"/>
<stop offset="0.26" stop-color="#732FD8"/>
<stop offset="0.45" stop-color="#7216D3"/>
<stop offset="0.49" stop-color="#6814C2"/>
<stop offset="0.62" stop-color="#480F8A"/>
<stop offset="0.74" stop-color="#2F0B5E"/>
<stop offset="0.85" stop-color="#1D093F"/>
<stop offset="0.94" stop-color="#11072B"/>
<stop offset="1" stop-color="#0E0725"/>
</radialGradient>
<clipPath id="clip0_4_146">
<rect width="458.8" height="342.14" fill="white" transform="translate(0.100098 0.225037)"/>
</clipPath>
<clipPath id="clip1_4_146">
<rect width="458.8" height="341.89" fill="white" transform="translate(5.1001 0.225037)"/>
</clipPath>
<clipPath id="clip2_4_146">
<rect width="458.8" height="341.89" fill="white" transform="translate(5.1001 0.225037)"/>
</clipPath>
<clipPath id="clip3_4_146">
<rect width="458.8" height="341.89" fill="white" transform="translate(5.1001 0.225037)"/>
</clipPath>
</defs>
</svg>
