<svg width="48" height="48" viewBox="0 0 48 48" fill="none" xmlns="http://www.w3.org/2000/svg">
<rect x="1" y="1" width="46" height="46" rx="23" fill="#0E0725"/>
<rect x="1" y="1" width="46" height="46" rx="23" stroke="#41FA7E" stroke-width="2"/>
<g clip-path="url(#clip0_114_23)">
<path d="M32.1357 15.2997C31.9485 15.2997 31.7617 15.3169 31.5777 15.351C31.4125 15.0394 31.1829 14.7664 30.9041 14.5503C30.6254 14.3342 30.3038 14.1799 29.9607 14.0977C29.6177 14.0155 29.2611 14.0073 28.9147 14.0736C28.5682 14.1399 28.2399 14.2792 27.9514 14.4822C27.7994 14.0089 27.5092 13.592 27.1181 13.2852C26.727 12.9783 26.253 12.7957 25.7572 12.7607C25.2614 12.7257 24.7664 12.84 24.3361 13.0889C23.9058 13.3378 23.56 13.7098 23.343 14.157C23.0423 13.9148 22.6894 13.7458 22.3121 13.6633C21.9349 13.5808 21.5436 13.587 21.1692 13.6816C20.7948 13.7762 20.4475 13.9565 20.1547 14.2083C19.8619 14.46 19.6316 14.7764 19.482 15.1324C17.8365 14.2609 15.747 15.6675 15.9102 17.5275C15.3325 18.0428 14.9256 18.7219 14.7439 19.4743C14.5621 20.2267 14.614 21.0167 14.8928 21.7388H13.884C13.5858 21.7391 13.2998 21.8577 13.0889 22.0686C12.878 22.2795 12.7593 22.5655 12.759 22.8638V31.4888C12.7593 31.7871 12.878 32.073 13.0889 32.284C13.2998 32.4949 13.5858 32.6135 13.884 32.6138H19.509V34.4888H18.384C18.2846 34.4888 18.1892 34.5283 18.1189 34.5986C18.0485 34.669 18.009 34.7643 18.009 34.8638C18.009 34.9633 18.0485 35.0586 18.1189 35.129C18.1892 35.1993 18.2846 35.2388 18.384 35.2388H23.634C23.7335 35.2388 23.8289 35.1993 23.8992 35.129C23.9695 35.0586 24.009 34.9633 24.009 34.8638C24.009 34.7643 23.9695 34.669 23.8992 34.5986C23.8289 34.5283 23.7335 34.4888 23.634 34.4888H22.509V32.6138H28.134C28.4323 32.6135 28.7183 32.4949 28.9292 32.284C29.1401 32.073 29.2587 31.7871 29.259 31.4888V24.9135C29.756 25.0338 30.2748 25.031 30.7704 24.9055C31.266 24.7799 31.7236 24.5354 32.1034 24.1931C32.4832 23.8509 32.7738 23.4211 32.9501 22.9412C33.1263 22.4612 33.1828 21.9455 33.1148 21.4388C36.4384 20.2834 35.6775 15.354 32.1357 15.2997ZM21.7594 34.4888H20.2594V32.6138H21.7594V34.4888ZM28.5094 31.4888C28.5093 31.5882 28.4698 31.6835 28.3995 31.7539C28.3292 31.8242 28.2338 31.8637 28.1344 31.8638H13.8844C13.785 31.8637 13.6897 31.8242 13.6194 31.7539C13.549 31.6835 13.5095 31.5882 13.5094 31.4888V22.8638C13.5095 22.7644 13.549 22.669 13.6194 22.5987C13.6897 22.5284 13.785 22.4889 13.8844 22.4888H15.2794C15.5857 22.947 15.989 23.3322 16.4608 23.6171C16.9326 23.902 17.4613 24.0796 18.0094 24.1373V25.917C17.6033 26.0062 17.2443 26.2419 17.001 26.579C16.7576 26.9162 16.6471 27.3311 16.6904 27.7447C16.7337 28.1582 16.9278 28.5412 17.2357 28.8207C17.5436 29.1001 17.9436 29.2563 18.3594 29.2594C18.7751 29.2625 19.1775 29.1123 19.4895 28.8376C19.8015 28.5628 20.0014 28.1827 20.0509 27.7699C20.1004 27.357 19.996 26.9405 19.7578 26.5997C19.5196 26.259 19.1641 26.0179 18.7594 25.9227V24.1324C18.9709 24.1138 19.1805 24.0769 19.3857 24.0222C19.5125 24.4824 19.7679 24.8969 20.1219 25.2172C20.4759 25.5374 20.9138 25.7501 21.3844 25.8304V27.792C20.9783 27.8812 20.6193 28.1169 20.376 28.454C20.1326 28.7912 20.0221 29.2061 20.0654 29.6197C20.1087 30.0332 20.3028 30.4162 20.6107 30.6957C20.9186 30.9751 21.3186 31.1313 21.7344 31.1344C22.1501 31.1375 22.5525 30.9873 22.8645 30.7126C23.1765 30.4378 23.3764 30.0577 23.4259 29.6449C23.4754 29.232 23.371 28.8155 23.1328 28.4747C22.8946 28.134 22.5391 27.8929 22.1344 27.7977V25.8338C22.7459 25.7405 23.3009 25.4229 23.691 24.9428C24.0176 25.1499 24.3799 25.2942 24.7594 25.3684V25.917C24.3533 26.0062 23.9943 26.2419 23.751 26.579C23.5076 26.9162 23.3971 27.3311 23.4404 27.7447C23.4837 28.1582 23.6778 28.5412 23.9857 28.8207C24.2936 29.1001 24.6936 29.2563 25.1094 29.2594C25.5251 29.2625 25.9275 29.1123 26.2395 28.8376C26.5515 28.5628 26.7514 28.1827 26.8009 27.7699C26.8504 27.357 26.746 26.9405 26.5078 26.5997C26.2696 26.259 25.9141 26.0179 25.5094 25.9227V25.4288C25.9756 25.4094 26.4313 25.2847 26.8424 25.0641C27.2535 24.8435 27.6093 24.5326 27.8832 24.1549C28.0718 24.3338 28.2822 24.4883 28.5094 24.6147V31.4888ZM18.375 26.625C18.5605 26.625 18.7417 26.68 18.8959 26.783C19.0501 26.8861 19.1702 27.0325 19.2412 27.2038C19.3121 27.3751 19.3307 27.5636 19.2945 27.7454C19.2583 27.9273 19.1691 28.0943 19.0379 28.2255C18.9068 28.3566 18.7398 28.4459 18.5579 28.482C18.3761 28.5182 18.1876 28.4996 18.0163 28.4287C17.845 28.3577 17.6985 28.2376 17.5955 28.0834C17.4925 27.9292 17.4375 27.748 17.4375 27.5625C17.4378 27.314 17.5367 27.0757 17.7124 26.9C17.8882 26.7242 18.1265 26.6253 18.375 26.625ZM21.75 28.5C21.9355 28.5 22.1167 28.555 22.2709 28.658C22.4251 28.7611 22.5452 28.9075 22.6162 29.0788C22.6871 29.2501 22.7057 29.4386 22.6695 29.6204C22.6333 29.8023 22.5441 29.9693 22.4129 30.1005C22.2818 30.2316 22.1148 30.3209 21.9329 30.357C21.7511 30.3932 21.5626 30.3746 21.3913 30.3037C21.22 30.2327 21.0735 30.1126 20.9705 29.9584C20.8675 29.8042 20.8125 29.623 20.8125 29.4375C20.8128 29.189 20.9117 28.9507 21.0874 28.775C21.2632 28.5992 21.5015 28.5003 21.75 28.5ZM25.125 26.625C25.3105 26.625 25.4917 26.68 25.6459 26.783C25.8001 26.8861 25.9202 27.0325 25.9912 27.2038C26.0621 27.3751 26.0807 27.5636 26.0445 27.7454C26.0083 27.9273 25.9191 28.0943 25.7879 28.2255C25.6568 28.3566 25.4898 28.4459 25.3079 28.482C25.1261 28.5182 24.9376 28.4996 24.7663 28.4287C24.595 28.3577 24.4485 28.2376 24.3455 28.0834C24.2425 27.9292 24.1875 27.748 24.1875 27.5625C24.1878 27.314 24.2867 27.0757 24.4624 26.9C24.6382 26.7242 24.8765 26.6253 25.125 26.625ZM32.6048 20.7998C32.085 20.9243 32.4334 21.5172 32.3948 21.8622C32.3973 22.4948 32.1488 23.1025 31.7038 23.5522C31.2588 24.0018 30.6536 24.2566 30.021 24.2607C29.6523 24.261 29.2887 24.1745 28.9597 24.0081C28.6307 23.8417 28.3455 23.6001 28.1273 23.3029C28.0885 23.2522 28.0375 23.2122 27.979 23.1865C27.9206 23.1609 27.8566 23.1505 27.793 23.1562C27.7294 23.162 27.6683 23.1838 27.6154 23.2195C27.5626 23.2553 27.5196 23.3038 27.4905 23.3607C27.3315 23.6822 27.1015 23.9634 26.8179 24.1831C26.5343 24.4028 26.2046 24.5552 25.8535 24.6288C25.5024 24.7025 25.1392 24.6955 24.7913 24.6083C24.4433 24.5212 24.1197 24.3561 23.8448 24.1257C23.8026 24.0903 23.7532 24.0647 23.7001 24.0504C23.6469 24.0362 23.5913 24.0338 23.5371 24.0434C23.4829 24.053 23.4315 24.0743 23.3864 24.1059C23.3414 24.1375 23.3038 24.1785 23.2763 24.2262C23.0937 24.5492 22.8118 24.8048 22.4724 24.955C22.1331 25.1053 21.7544 25.1422 21.3925 25.0602C21.0305 24.9783 20.7046 24.7818 20.4631 24.5001C20.2216 24.2183 20.0773 23.8663 20.0517 23.496C20.0437 23.4022 20.0009 23.3147 19.9317 23.2508C19.8626 23.1869 19.772 23.1512 19.6778 23.1507C16.3639 24.5085 13.788 20.2729 16.5409 17.9772C16.7288 17.8347 16.6658 17.5827 16.6527 17.3817C16.6507 16.9179 16.8327 16.4723 17.1588 16.1426C17.4849 15.8129 17.9285 15.626 18.3923 15.6229C18.7835 15.6248 19.1622 15.7611 19.4648 16.0092C19.5157 16.0491 19.5761 16.0752 19.6401 16.0851C19.7041 16.095 19.7695 16.0883 19.8301 16.0655C19.8907 16.0428 19.9445 16.0049 19.9863 15.9555C20.028 15.906 20.0563 15.8466 20.0685 15.783C20.1296 15.4463 20.2887 15.1351 20.5261 14.8886C20.7634 14.642 21.0683 14.4711 21.4025 14.3973C21.7367 14.3235 22.0852 14.3501 22.4043 14.4737C22.7234 14.5974 22.9989 14.8126 23.196 15.0923C23.2392 15.1522 23.2989 15.1981 23.3679 15.2243C23.4368 15.2506 23.512 15.2561 23.584 15.2402C23.6561 15.2242 23.7219 15.1875 23.7733 15.1346C23.8247 15.0816 23.8594 15.0148 23.8733 14.9423C23.9492 14.5134 24.1835 14.1286 24.5298 13.8644C24.8762 13.6002 25.3092 13.4758 25.7429 13.5159C26.1767 13.556 26.5795 13.7577 26.8715 14.081C27.1634 14.4043 27.3232 14.8255 27.3192 15.261C27.3206 15.3393 27.3463 15.4152 27.3928 15.4783C27.4393 15.5413 27.5042 15.5882 27.5786 15.6127C27.653 15.6371 27.7331 15.6378 27.8079 15.6146C27.8827 15.5915 27.9485 15.5456 27.996 15.4834C28.1818 15.2323 28.4321 15.0363 28.7204 14.916C29.0086 14.7957 29.3241 14.7557 29.6332 14.8002C29.9424 14.8447 30.2337 14.9721 30.4763 15.1689C30.7189 15.3656 30.9037 15.6244 31.011 15.9177C31.0441 16.0068 31.1097 16.0801 31.1947 16.1227C31.2797 16.1654 31.3777 16.1743 31.4689 16.1475C34.6515 15.3462 35.7795 20.0187 32.6048 20.7998Z" fill="white"/>
</g>
<defs>
<clipPath id="clip0_114_23">
<rect width="24" height="24" fill="white" transform="translate(12 12)"/>
</clipPath>
</defs>
</svg>
