<svg width="100" height="100" viewBox="0 0 100 100" fill="none" xmlns="http://www.w3.org/2000/svg">
<path d="M97.4999 40.7031C94.1406 38.75 89.6874 38.5156 85.9374 39.6094C85.4687 35.5469 82.8124 32.0312 79.6874 29.5312L78.4374 28.5156L77.3437 29.7656C75.2343 32.1875 74.6093 36.25 74.9218 39.375C75.1562 41.6406 75.8593 43.9844 77.2656 45.8594C76.1718 46.4844 74.9999 47.3438 73.9062 47.7344C71.7187 48.5156 69.2968 49.2969 66.953 49.2969H61.7187V38.2813H51.5624V18.75H39.8437V28.125H20.3124V38.2813H10.1562V49.2188H1.40618L1.24993 50.3906C0.859306 55.3906 1.48431 60.2344 3.59368 64.8438L4.45306 66.5625L4.53118 66.7188C10.7031 77.1875 21.4843 81.5625 33.2812 81.5625C56.0937 81.5625 74.9218 71.3281 83.5156 49.8438C89.2968 50.1563 95.2343 48.4375 98.0468 42.8906L98.7499 41.4844L97.4999 40.7031ZM21.8749 30.4688H29.6874V39.0625H21.8749V30.4688ZM32.1093 65C32.1093 66.3281 31.0156 67.4219 29.6874 67.4219C28.3593 67.4219 27.2656 66.3281 27.2656 65C27.2656 63.6719 28.3593 62.5781 29.6874 62.5781C31.0156 62.6563 32.1093 63.6719 32.1093 65ZM21.8749 40.625H29.6874V49.2188H21.8749V40.625ZM11.7187 40.625H20.3124V49.2188H11.7187V40.625ZM33.3593 79.8438C21.0156 79.7656 14.3749 75.625 8.90618 70.1563C10.5468 70.2344 12.1093 70.3125 13.5156 70.3125C14.7656 70.3125 16.0156 70.3125 17.1874 70.2344C20.2343 70.0781 22.8906 69.6875 25.0781 69.0625C26.8749 73.2031 30.1562 77.0313 36.0156 79.8438H33.3593ZM39.8437 49.2188H31.2499V40.625H39.8437V49.2188ZM39.8437 39.0625H31.2499V30.4688H39.8437V39.0625ZM49.9999 49.2188H41.4062V40.625H49.9999V49.2188ZM49.9999 39.0625H41.4062V30.4688H49.9999V39.0625ZM49.9999 28.9063H41.4062V20.3125H49.9999V28.9063ZM60.1562 49.2188H51.5624V40.625H60.1562V49.2188ZM30.3124 63.4375C30.1562 63.3594 29.9218 63.2813 29.6874 63.2813C28.7499 63.2813 27.9687 64.0625 27.9687 65C27.9687 65.9375 28.7499 66.7188 29.6874 66.7188C30.6249 66.7188 31.4062 65.9375 31.4062 65C31.4062 64.7656 31.3281 64.5313 31.2499 64.375C31.0937 64.6094 30.9374 64.7656 30.6249 64.7656C30.2343 64.7656 29.9218 64.4531 29.9218 64.0625C29.9999 63.75 30.1562 63.5156 30.3124 63.4375Z" fill="#019BC6"/>
</svg>
