<svg width="48" height="48" viewBox="0 0 48 48" fill="none" xmlns="http://www.w3.org/2000/svg">
<rect x="1" y="1" width="46" height="46" rx="23" fill="#0E0725"/>
<rect x="1" y="1" width="46" height="46" rx="23" stroke="#41FA7E" stroke-width="2"/>
<path d="M35.4 21.7687C34.5937 21.3 33.525 21.2438 32.625 21.5063C32.5125 20.5312 31.875 19.6875 31.125 19.0875L30.825 18.8438L30.5625 19.1437C30.0562 19.725 29.9062 20.7 29.9812 21.45C30.0375 21.9938 30.2062 22.5563 30.5437 23.0063C30.2812 23.1562 30 23.3625 29.7375 23.4562C29.2125 23.6437 28.6312 23.8312 28.0687 23.8312H26.8125V21.1875H24.375V16.5H21.5625V18.75H16.875V21.1875H14.4375V23.8125H12.3375L12.3 24.0938C12.2062 25.2937 12.3562 26.4563 12.8625 27.5625L13.0687 27.975L13.0875 28.0125C14.5687 30.525 17.1562 31.575 19.9875 31.575C25.4625 31.575 29.9812 29.1187 32.0437 23.9625C33.4312 24.0375 34.8562 23.625 35.5312 22.2938L35.7 21.9562L35.4 21.7687ZM17.25 19.3125H19.125V21.375H17.25V19.3125ZM19.7062 27.6C19.7062 27.9187 19.4437 28.1813 19.125 28.1813C18.8062 28.1813 18.5437 27.9187 18.5437 27.6C18.5437 27.2812 18.8062 27.0187 19.125 27.0187C19.4437 27.0375 19.7062 27.2812 19.7062 27.6ZM17.25 21.75H19.125V23.8125H17.25V21.75ZM14.8125 21.75H16.875V23.8125H14.8125V21.75ZM20.0062 31.1625C17.0437 31.1437 15.45 30.15 14.1375 28.8375C14.5312 28.8563 14.9062 28.875 15.2437 28.875C15.5437 28.875 15.8437 28.875 16.125 28.8563C16.8562 28.8188 17.4937 28.725 18.0187 28.575C18.45 29.5688 19.2375 30.4875 20.6437 31.1625H20.0062ZM21.5625 23.8125H19.5V21.75H21.5625V23.8125ZM21.5625 21.375H19.5V19.3125H21.5625V21.375ZM24 23.8125H21.9375V21.75H24V23.8125ZM24 21.375H21.9375V19.3125H24V21.375ZM24 18.9375H21.9375V16.875H24V18.9375ZM26.4375 23.8125H24.375V21.75H26.4375V23.8125ZM19.275 27.225C19.2375 27.2062 19.1812 27.1875 19.125 27.1875C18.9 27.1875 18.7125 27.375 18.7125 27.6C18.7125 27.825 18.9 28.0125 19.125 28.0125C19.35 28.0125 19.5375 27.825 19.5375 27.6C19.5375 27.5437 19.5187 27.4875 19.5 27.45C19.4625 27.5063 19.425 27.5438 19.35 27.5438C19.2562 27.5438 19.1812 27.4688 19.1812 27.375C19.2 27.3 19.2375 27.2437 19.275 27.225Z" fill="#019BC6"/>
</svg>
