<svg width="102" height="31" viewBox="0 0 102 31" fill="none" xmlns="http://www.w3.org/2000/svg">
<g clip-path="url(#clip0_4_32)">
<path d="M33.139 22.6516H30.3107V7.66141H33.139V13.8083H33.7609L37.7267 7.66141H40.9206V7.78944L36.2907 14.9637V15.3493L41.1769 22.5236V22.6516H37.8548L33.7609 16.5047H33.139V22.6516Z" fill="white"/>
<path d="M49.771 12.03H52.4711V22.6516H49.771V21.109H49.3851C48.9132 22.3378 47.899 22.9514 46.3412 22.9514C45.813 22.9514 45.3192 22.8655 44.863 22.6938C44.4051 22.522 44.0051 22.2582 43.6629 21.9006C43.3207 21.5447 43.052 21.0981 42.8598 20.5626C42.6676 20.0271 42.5707 19.3947 42.5707 18.6671V12.0284H45.2708V18.1098C45.2708 18.867 45.4489 19.4556 45.8068 19.8772C46.1646 20.2987 46.699 20.5095 47.4147 20.5095C48.2288 20.5095 48.8257 20.2488 49.2038 19.7273C49.5819 19.2058 49.771 18.4954 49.771 17.5961V12.0284V12.03Z" fill="white"/>
<path d="M57.0573 22.6516H54.3572V7.66141H57.0573V13.5726H57.4433C57.7292 12.9871 58.1433 12.5343 58.6871 12.2127C59.2293 11.891 59.9231 11.7302 60.7653 11.7302C61.3934 11.7302 61.9903 11.852 62.5544 12.094C63.1185 12.3376 63.6123 12.6904 64.0326 13.1541C64.4545 13.6178 64.7889 14.1862 65.0405 14.856C65.2905 15.5273 65.4155 16.2908 65.4155 17.148V17.5336C65.4155 18.4048 65.2936 19.1761 65.0514 19.8459C64.8077 20.5173 64.4795 21.0841 64.0654 21.5478C63.6514 22.0115 63.1623 22.3612 62.5966 22.597C62.0325 22.8327 61.4216 22.9498 60.7637 22.9498C60.2778 22.9498 59.8559 22.8999 59.4996 22.8C59.1418 22.7 58.8308 22.5642 58.5667 22.3925C58.3027 22.2207 58.0808 22.0255 57.9027 21.8038C57.7245 21.5821 57.5698 21.3511 57.4417 21.1075H57.0557V22.6501L57.0573 22.6516ZM59.8856 20.3815C60.7278 20.3815 61.4106 20.1207 61.9325 19.5993C62.4544 19.0778 62.7154 18.3674 62.7154 17.4681V17.2104C62.7154 16.3111 62.4544 15.6007 61.9325 15.0792C61.4106 14.5578 60.7293 14.297 59.8856 14.297C59.0418 14.297 58.3605 14.564 57.8386 15.0995C57.3167 15.6351 57.0557 16.3377 57.0557 17.2089V17.4665C57.0557 18.3377 57.3167 19.0403 57.8386 19.5758C58.3605 20.1114 59.0418 20.3784 59.8856 20.3784V20.3815Z" fill="white"/>
<path d="M74.6753 21.1106H74.2893C74.1752 21.3542 74.0362 21.5852 73.8721 21.807C73.708 22.0287 73.494 22.2238 73.2283 22.3956C72.9643 22.5673 72.6502 22.7016 72.2861 22.8031C71.922 22.903 71.4829 22.953 70.9673 22.953C70.3095 22.953 69.6985 22.8359 69.1344 22.6001C68.5703 22.3643 68.0765 22.0146 67.6562 21.5509C67.2343 21.0872 66.9062 20.5189 66.6702 19.8491C66.4343 19.1777 66.3171 18.408 66.3171 17.5367V17.1511C66.3171 16.2939 66.4421 15.5304 66.6921 14.8591C66.9421 14.1877 67.2843 13.621 67.7203 13.1572C68.1562 12.6935 68.6641 12.3407 69.2422 12.0971C69.8204 11.8551 70.4313 11.7333 71.0751 11.7333C71.933 11.7333 72.6111 11.8941 73.1111 12.2158C73.6112 12.5374 74.0034 12.9902 74.2893 13.5757H74.6753V7.66452H77.3754V22.6548H74.6753V21.1122V21.1106ZM71.8455 20.383C72.6877 20.383 73.3705 20.116 73.8924 19.5805C74.4143 19.045 74.6753 18.3424 74.6753 17.4712V17.2136C74.6753 16.3423 74.4143 15.6397 73.8924 15.1042C73.3705 14.5687 72.6892 14.3017 71.8455 14.3017C71.0017 14.3017 70.3204 14.5624 69.7985 15.0839C69.2766 15.6054 69.0156 16.3158 69.0156 17.2151V17.4727C69.0156 18.3721 69.2766 19.0824 69.7985 19.6039C70.3204 20.1254 71.0017 20.3862 71.8455 20.3862V20.383Z" fill="white"/>
<path d="M81.6615 18.2191C81.6756 18.5329 81.7506 18.8217 81.8865 19.0856C82.0225 19.3495 82.2084 19.5774 82.4444 19.771C82.6803 19.9646 82.9506 20.1145 83.2585 20.2207C83.5647 20.3284 83.8913 20.3815 84.2335 20.3815C84.9054 20.3815 85.4195 20.2644 85.7773 20.0286C86.1336 19.7929 86.3914 19.5118 86.5492 19.1824L88.8634 20.4674C88.7353 20.739 88.5556 21.0201 88.3274 21.3136C88.0993 21.6071 87.8024 21.8741 87.4383 22.1161C87.0743 22.3597 86.6305 22.558 86.1102 22.7157C85.5883 22.8734 84.9773 22.9514 84.2773 22.9514C83.4772 22.9514 82.7475 22.8234 82.0912 22.5658C81.4334 22.3082 80.8662 21.9381 80.388 21.4525C79.9099 20.967 79.538 20.3752 79.2739 19.6758C79.0098 18.9763 78.877 18.1847 78.877 17.2994V17.1714C78.877 16.358 79.0161 15.6163 79.2942 14.945C79.5724 14.2736 79.9552 13.7022 80.4411 13.2322C80.9271 12.7607 81.4943 12.3938 82.1444 12.1299C82.7944 11.866 83.4913 11.7333 84.2335 11.7333C85.1476 11.7333 85.9336 11.8942 86.5914 12.2158C87.2493 12.5374 87.7915 12.9434 88.2196 13.4367C88.6478 13.9286 88.9619 14.4719 89.1634 15.0636C89.3634 15.6569 89.4634 16.2315 89.4634 16.7873V18.2222H81.6615V18.2191ZM84.2116 14.1721C83.5257 14.1721 82.9678 14.347 82.5397 14.6967C82.1115 15.0465 81.8318 15.4493 81.7037 15.9067H86.7196C86.6336 15.4071 86.3664 14.9934 85.9164 14.6639C85.4664 14.3361 84.8976 14.1706 84.2132 14.1706L84.2116 14.1721Z" fill="white"/>
<path d="M90.7698 12.03H93.6839L96.1919 21.3667H96.5778L99.0858 12.03H102L98.9561 22.6516H93.8121L90.7682 12.03H90.7698Z" fill="white"/>
<path d="M7.71283 1.11166V29.8883C7.71283 30.4816 7.23156 30.961 6.63934 30.961H1.07346C0.479685 30.961 -2.43424e-05 30.4801 -2.43424e-05 29.8883V24.0615C-2.43424e-05 23.6009 0.293739 23.1918 0.731259 23.0451L3.86734 21.9912V15.7319L3.83609 15.7162L0.595315 14.1081C0.229674 13.927 -0.00158691 13.5554 -0.00158691 13.1463V1.11166C-2.43424e-05 0.519918 0.481248 0.039032 1.07346 0.039032H6.63778C7.23156 0.039032 7.71127 0.519918 7.71127 1.11166H7.71283Z" fill="#41FA7E"/>
<path d="M15.4241 15.4555L14.2272 15.8568C13.7084 16.0316 13.66 16.7436 14.1491 16.9872L15.4226 17.6195L16.0054 17.9099L16.9211 18.3642L20.7666 20.2722L22.537 21.1512C22.9026 21.3323 23.1339 21.7039 23.1339 22.113V29.8899C23.1339 30.4832 22.6526 30.9625 22.0604 30.9625H16.4961C15.9023 30.9625 15.4226 30.4816 15.4226 29.8899V21.846C15.4226 21.6133 15.2913 21.3994 15.0819 21.298L11.3865 19.465L10.2927 18.9216C9.30198 18.4298 8.67383 17.4196 8.67383 16.3127V16.1846C8.67383 14.934 9.4723 13.8224 10.6599 13.4242L15.4226 11.8223L16.5039 11.4585C16.7539 11.3742 16.9211 11.14 16.9211 10.8777V8.43269C16.9211 8.09388 16.6539 7.80191 16.3148 7.80347C16.0664 7.80504 15.8429 7.70667 15.682 7.54429C15.5226 7.38504 15.4226 7.16333 15.4226 6.91821V1.11166C15.4226 0.518357 15.9038 0.039032 16.4961 0.039032H22.0604C22.6542 0.039032 23.1339 0.519918 23.1339 1.11166V6.91821C23.1339 7.4069 22.737 7.80347 22.2479 7.80347H21.3791C21.04 7.80347 20.765 8.07827 20.765 8.41707V12.8887C20.765 13.3493 20.4712 13.7583 20.0337 13.9051L16.9195 14.9512L15.421 15.4555H15.4241Z" fill="#41FA7E"/>
<path d="M22.0635 31H16.4992C15.8851 31 15.3866 30.5004 15.3866 29.8883V21.8444C15.3866 21.6274 15.2616 21.426 15.0679 21.3307L10.2786 18.9544C9.26759 18.4532 8.63788 17.4399 8.63788 16.3111V16.1831C8.63788 14.9137 9.44573 13.7896 10.6505 13.3852L16.4945 11.4195C16.7289 11.3414 16.8851 11.1228 16.8851 10.8762V8.43113C16.8851 8.27187 16.8195 8.11574 16.707 8.00332C16.6023 7.89872 16.4648 7.84251 16.3226 7.84251C16.3179 7.84251 16.3148 7.84251 16.3101 7.84251C16.0617 7.84251 15.8304 7.74727 15.657 7.5724C15.4819 7.39753 15.3866 7.16646 15.3866 6.91977V1.11166C15.3866 0.498061 15.8866 0 16.4992 0H22.0635C22.6776 0 23.176 0.499622 23.176 1.11166V6.91821C23.176 7.4272 22.762 7.84251 22.251 7.84251H21.3822C21.065 7.84251 20.8072 8.10013 20.8072 8.41707V12.8887C20.8072 13.3665 20.5025 13.7896 20.0493 13.9426L14.2397 15.8958C14.0147 15.9707 13.8662 16.1643 13.8491 16.4001C13.8334 16.6359 13.9553 16.8482 14.1663 16.9528L22.5557 21.1153C22.937 21.3042 23.1745 21.6852 23.1745 22.1114V29.8883C23.1745 30.5019 22.6745 31 22.0619 31H22.0635ZM16.321 7.76444C16.4851 7.76444 16.6414 7.83002 16.7601 7.94868C16.8883 8.07514 16.9617 8.25157 16.9617 8.43269V10.8777C16.9617 11.1572 16.7836 11.407 16.5179 11.496L10.6739 13.4617C9.50198 13.8551 8.71444 14.9496 8.71444 16.1846V16.3127C8.71444 17.4118 9.32697 18.397 10.3114 18.8857L15.1007 21.262C15.321 21.3698 15.4632 21.5993 15.4632 21.846V29.8899C15.4632 30.4598 15.9273 30.9235 16.4976 30.9235H22.0619C22.6323 30.9235 23.0964 30.4598 23.0964 29.8899V22.113C23.0964 21.718 22.876 21.362 22.5213 21.1871L14.1319 17.0246C13.8912 16.9044 13.7522 16.664 13.7709 16.3954C13.7897 16.1269 13.9584 15.9083 14.2147 15.8224L20.0243 13.8692C20.4462 13.7271 20.7291 13.3337 20.7291 12.8887V8.41707C20.7291 8.05797 21.0213 7.76444 21.3822 7.76444H22.251C22.7182 7.76444 23.0979 7.38504 23.0979 6.91821V1.11166C23.0979 0.541778 22.6338 0.078066 22.0635 0.078066H16.4992C15.9288 0.078066 15.4648 0.541778 15.4648 1.11166V6.91821C15.4648 7.1446 15.5523 7.35694 15.7132 7.51619C15.871 7.67545 16.0835 7.76444 16.3117 7.76444C16.3164 7.76444 16.3195 7.76444 16.3242 7.76444H16.321Z" fill="#41FA7E"/>
</g>
<defs>
<clipPath id="clip0_4_32">
<rect width="102" height="31" fill="white"/>
</clipPath>
</defs>
</svg>
