<svg width="48" height="48" viewBox="0 0 48 48" fill="none" xmlns="http://www.w3.org/2000/svg">
<rect x="1" y="1" width="46" height="46" rx="23" fill="#0E0725"/>
<rect x="1" y="1" width="46" height="46" rx="23" stroke="#41FA7E" stroke-width="2"/>
<g clip-path="url(#clip0_114_18)">
<path d="M19.6954 35.6064C19.1379 35.6064 18.6115 35.3518 18.2554 34.8902L12.8362 27.9664C12.48 27.5048 12.3407 26.9159 12.48 26.3428L14.4155 17.7C14.5393 17.127 14.9109 16.6654 15.422 16.4108L23.2568 12.5588C23.5045 12.4316 23.7833 12.3679 24.062 12.3679C24.3407 12.3679 24.6193 12.4315 24.8671 12.5589L32.702 16.3949C33.2129 16.6495 33.5845 17.1111 33.7084 17.6841L35.6439 26.3269C35.7678 26.8999 35.6439 27.4889 35.2878 27.9505L29.8684 34.8743C29.5122 35.3199 28.9858 35.5905 28.4284 35.5905L19.6956 35.6064H19.6954Z" fill="#326DE6"/>
<path d="M24.0464 12.7658C24.2632 12.7658 24.48 12.8135 24.6812 12.909L32.5161 16.745C32.9187 16.9519 33.2283 17.3339 33.3212 17.7796L35.2567 26.4224C35.3651 26.884 35.2567 27.3616 34.9625 27.7276L29.5432 34.6515C29.2645 35.0175 28.8309 35.2244 28.3819 35.2244H19.6954C19.2464 35.2244 18.8129 35.0175 18.5341 34.6515L13.1148 27.7276C12.8361 27.3616 12.7276 26.884 12.8206 26.4224L14.7561 17.7796C14.8645 17.318 15.1587 16.936 15.5612 16.745L23.3962 12.8932C23.5975 12.8136 23.8297 12.7659 24.0465 12.7659L24.0464 12.7658ZM24.0464 12.0177C23.7212 12.0177 23.3961 12.0973 23.0864 12.2405L15.2516 16.0925C14.6322 16.3949 14.1987 16.9519 14.0438 17.6363L12.1083 26.2792C11.9536 26.9636 12.1083 27.664 12.5419 28.2211L17.9612 35.1449C18.3794 35.686 19.0141 35.9884 19.68 35.9884H28.3664C29.0322 35.9884 29.6671 35.686 30.0851 35.1449L35.5045 28.221C35.938 27.6799 36.0929 26.9636 35.938 26.2791L34.0025 17.6363C33.8477 16.9519 33.4142 16.3949 32.7948 16.0925L24.9909 12.2404C24.6967 12.0973 24.3716 12.0177 24.0464 12.0177Z" fill="#0E0725"/>
<path d="M31.8968 25.738C31.8813 25.738 31.8813 25.738 31.8968 25.738H31.8813C31.8659 25.738 31.8504 25.738 31.8504 25.7221C31.8195 25.7221 31.7885 25.7062 31.7575 25.7062C31.6491 25.6903 31.5562 25.6744 31.4633 25.6744C31.4168 25.6744 31.3704 25.6744 31.3084 25.6584H31.293C30.9678 25.6266 30.7046 25.5948 30.4568 25.5152C30.3484 25.4674 30.3175 25.4038 30.2865 25.3401C30.2865 25.3242 30.271 25.3242 30.271 25.3083L30.0697 25.2447C30.1648 24.4959 30.1281 23.7357 29.9613 23.0003C29.7923 22.2588 29.4988 21.5532 29.0942 20.9152L29.2491 20.772V20.7402C29.2491 20.6606 29.2646 20.581 29.3265 20.5014C29.5123 20.3263 29.7446 20.1831 30.0233 20.008C30.0697 19.9762 30.1161 19.9603 30.1626 19.9284C30.2555 19.8807 30.333 19.833 30.4259 19.7693C30.4413 19.7534 30.4723 19.7375 30.5033 19.7057C30.5188 19.6897 30.5342 19.6897 30.5342 19.6738C30.751 19.4827 30.7975 19.1644 30.6426 18.9574C30.5652 18.846 30.4259 18.7824 30.2865 18.7824C30.1627 18.7824 30.0542 18.8301 29.9459 18.9097L29.9149 18.9415C29.884 18.9574 29.8684 18.9893 29.8375 19.0052C29.76 19.0848 29.6981 19.1484 29.6362 19.228C29.6053 19.2598 29.5743 19.3076 29.5278 19.3394C29.311 19.5782 29.1097 19.7693 28.9084 19.9125C28.862 19.9443 28.8156 19.9603 28.7691 19.9603C28.7382 19.9603 28.7071 19.9603 28.6762 19.9443H28.6453L28.4594 20.0717C28.2581 19.8489 28.0413 19.6578 27.8246 19.4668C26.8912 18.7169 25.768 18.2583 24.5884 18.1457L24.573 17.9388L24.542 17.907C24.4955 17.8592 24.4336 17.8115 24.4181 17.7001C24.4026 17.4454 24.4336 17.1588 24.4646 16.8405V16.8246C24.4646 16.7768 24.4801 16.7132 24.4955 16.6654C24.511 16.57 24.5265 16.4744 24.542 16.363V16.2198C24.542 15.9333 24.3252 15.6946 24.062 15.6946C23.9381 15.6946 23.8142 15.7582 23.7213 15.8537C23.6285 15.9492 23.582 16.0765 23.582 16.2198V16.3471C23.582 16.4585 23.5975 16.554 23.6284 16.6495C23.6439 16.6973 23.6439 16.745 23.6594 16.8087V16.8246C23.6903 17.1429 23.7368 17.4295 23.7059 17.6842C23.6904 17.7956 23.6284 17.8433 23.582 17.8911L23.5511 17.9229L23.5355 18.1298C23.2568 18.1616 22.9781 18.1934 22.6994 18.2571C21.5071 18.5277 20.4542 19.1485 19.6336 20.0398L19.4788 19.9284H19.4478C19.4169 19.9284 19.3859 19.9443 19.3549 19.9443C19.3084 19.9443 19.262 19.9284 19.2155 19.8966C19.0142 19.7534 18.813 19.5463 18.5962 19.3076C18.5653 19.2758 18.5343 19.228 18.4878 19.1962C18.4259 19.1166 18.3639 19.0529 18.2865 18.9734C18.271 18.9574 18.2401 18.9416 18.2091 18.9097C18.1936 18.8938 18.1782 18.8938 18.1782 18.8779C18.0822 18.7964 17.9619 18.7515 17.8375 18.7505C17.6981 18.7505 17.5588 18.8142 17.4813 18.9256C17.3265 19.1325 17.373 19.4508 17.5897 19.6419C17.6052 19.6419 17.6052 19.6578 17.6206 19.6578C17.6516 19.6738 17.6671 19.7056 17.6981 19.7215C17.791 19.7851 17.8684 19.8329 17.9613 19.8807C18.0078 19.8966 18.0542 19.9284 18.1007 19.9603C18.3794 20.1353 18.6117 20.2786 18.7975 20.4537C18.8749 20.5332 18.8749 20.6128 18.8749 20.6924V20.7242L19.0297 20.8675C18.9988 20.9152 18.9678 20.9471 18.9523 20.9948C18.1781 22.2523 17.8839 23.7325 18.0852 25.1969L17.8839 25.2605C17.8839 25.2765 17.8684 25.2765 17.8684 25.2923C17.8375 25.356 17.791 25.4197 17.6981 25.4674C17.4659 25.547 17.1871 25.5789 16.862 25.6107H16.8465C16.8 25.6107 16.7381 25.6107 16.6917 25.6266C16.5988 25.6266 16.5059 25.6425 16.3975 25.6584C16.3665 25.6584 16.3356 25.6744 16.3046 25.6744C16.2891 25.6744 16.2736 25.6744 16.2581 25.6903C15.9794 25.7539 15.809 26.0245 15.8555 26.2791C15.902 26.502 16.1033 26.6453 16.351 26.6453C16.3975 26.6453 16.4284 26.6453 16.4749 26.6293C16.4904 26.6293 16.5059 26.6293 16.5059 26.6134C16.5368 26.6134 16.5677 26.5975 16.5987 26.5975C16.7071 26.5657 16.7846 26.5339 16.8775 26.4861C16.9239 26.4702 16.9703 26.4383 17.0168 26.4225H17.0323C17.3265 26.311 17.5897 26.2155 17.8375 26.1837H17.8684C17.9613 26.1837 18.0233 26.2314 18.0697 26.2633C18.0852 26.2633 18.0852 26.2792 18.1006 26.2792L18.3175 26.2474C18.6891 27.4252 19.4013 28.4757 20.3459 29.2398C20.5626 29.4148 20.7794 29.5581 21.0117 29.7014L20.9188 29.9082C20.9188 29.9242 20.9342 29.9242 20.9342 29.94C20.9652 30.0037 20.9961 30.0833 20.9652 30.1947C20.8724 30.4335 20.733 30.6722 20.5626 30.9428V30.9587C20.5317 31.0065 20.5007 31.0383 20.4698 31.086C20.4078 31.1656 20.3613 31.2452 20.2994 31.3407C20.2839 31.3567 20.2684 31.3885 20.253 31.4204C20.253 31.4363 20.2375 31.4522 20.2375 31.4522C20.1136 31.7228 20.2065 32.0252 20.4388 32.1366C20.5006 32.1684 20.5626 32.1844 20.6246 32.1844C20.8104 32.1844 20.9962 32.057 21.0891 31.8819C21.0891 31.866 21.1046 31.8501 21.1046 31.8501C21.12 31.8183 21.1355 31.7865 21.151 31.7705C21.1975 31.6591 21.213 31.5795 21.2439 31.484L21.2904 31.3407C21.3988 31.0224 21.4762 30.7677 21.6155 30.5449C21.6774 30.4494 21.7549 30.4335 21.8168 30.4016C21.8323 30.4016 21.8323 30.4016 21.8477 30.3857L21.9562 30.1788C22.6375 30.4494 23.3807 30.5926 24.1239 30.5926C24.573 30.5926 25.0375 30.5449 25.4711 30.4335C25.7439 30.3708 26.0128 30.291 26.2762 30.1947L26.369 30.3698C26.3846 30.3698 26.3846 30.3698 26.4001 30.3857C26.4775 30.4016 26.5394 30.4335 26.6013 30.529C26.7252 30.7518 26.8181 31.0224 26.9265 31.3248V31.3407L26.973 31.484C27.0039 31.5795 27.0194 31.675 27.0658 31.7705C27.0813 31.8023 27.0968 31.8183 27.1123 31.8501C27.1123 31.866 27.1278 31.8819 27.1278 31.8819C27.2206 32.0729 27.4065 32.1844 27.5923 32.1844C27.6542 32.1844 27.7162 32.1684 27.7781 32.1366C27.8865 32.073 27.9794 31.9774 28.0104 31.8501C28.0413 31.7228 28.0413 31.5795 27.9795 31.4522C27.9795 31.4363 27.9639 31.4363 27.9639 31.4204C27.9484 31.3885 27.933 31.3567 27.9175 31.3407C27.871 31.2452 27.8091 31.1656 27.7471 31.086C27.7162 31.0383 27.6853 31.0065 27.6543 30.9588V30.9428C27.4839 30.6722 27.329 30.4335 27.2517 30.1947C27.2207 30.0833 27.2517 30.0197 27.2671 29.9401C27.2671 29.9242 27.2826 29.9242 27.2826 29.9083L27.2052 29.7173C28.0259 29.2239 28.7226 28.5234 29.2491 27.664C29.5278 27.2183 29.7446 26.7249 29.8994 26.2314L30.0852 26.2632C30.1007 26.2632 30.1007 26.2473 30.1161 26.2473C30.1781 26.2155 30.2246 26.1678 30.3175 26.1678H30.3484C30.5962 26.1996 30.8594 26.295 31.1536 26.4065H31.1691C31.2155 26.4224 31.2619 26.4542 31.3084 26.4701C31.4013 26.5179 31.4788 26.5497 31.5871 26.5816C31.6181 26.5816 31.649 26.5975 31.68 26.5975C31.6955 26.5975 31.711 26.5975 31.7265 26.6134C31.773 26.6293 31.8039 26.6293 31.8504 26.6293C32.0826 26.6293 32.2839 26.4702 32.3459 26.2633C32.3459 26.0723 32.1755 25.8176 31.8968 25.7381V25.738ZM24.7277 24.9581L24.0465 25.2924L23.3652 24.9581L23.1949 24.21L23.6594 23.6052H24.4181L24.8826 24.21L24.7278 24.9581H24.7277ZM28.7691 23.3028C28.8892 23.8291 28.9258 24.372 28.8775 24.9103L26.5084 24.21C26.2917 24.1464 26.1678 23.9235 26.2142 23.7007C26.2297 23.637 26.2607 23.5733 26.3071 23.5256L28.1807 21.7906C28.4439 22.2364 28.6452 22.7458 28.7691 23.3028ZM27.4375 20.8357L25.4091 22.316C25.2388 22.4274 25.0065 22.3955 24.8671 22.2205C24.8207 22.1727 24.8053 22.109 24.7897 22.0454L24.6504 19.4508C25.7049 19.5757 26.6873 20.0638 27.4375 20.8357ZM22.9471 19.5304C23.1175 19.4985 23.2723 19.4667 23.4426 19.4349L23.3033 21.9816C23.2878 22.2044 23.1175 22.3954 22.8852 22.3954C22.8233 22.3954 22.7459 22.3795 22.6994 22.3477L20.64 20.8357C21.2749 20.1831 22.0646 19.7373 22.9471 19.5304ZM19.8968 21.7905L21.7394 23.4777C21.9097 23.621 21.9252 23.8915 21.7859 24.0666C21.7394 24.1302 21.6775 24.178 21.6 24.194L19.2 24.9103C19.1071 23.8279 19.3394 22.7297 19.8968 21.7905ZM19.4787 26.104L21.9407 25.6742C22.142 25.6583 22.3278 25.8016 22.3742 26.0085C22.3897 26.1039 22.3897 26.1836 22.3588 26.2632L21.4142 28.6029C20.5471 28.0299 19.8503 27.1545 19.4787 26.104ZM25.1304 29.2715C24.7742 29.3511 24.4181 29.3988 24.0465 29.3988C23.5046 29.3988 22.9781 29.3034 22.4827 29.1442L23.7059 26.8681C23.8297 26.7248 24.031 26.6612 24.2013 26.7567C24.2736 26.8022 24.3367 26.8616 24.3871 26.9317L25.5794 29.1442C25.44 29.1919 25.2852 29.2238 25.1303 29.2715H25.1304ZM28.1497 27.0591C27.7626 27.6957 27.2516 28.205 26.6633 28.6029L25.6878 26.1994C25.6413 26.0085 25.7188 25.8016 25.9046 25.706C25.9665 25.6742 26.0439 25.6583 26.1213 25.6583L28.5988 26.0881C28.5059 26.4382 28.351 26.7567 28.1497 27.0591Z" fill="white"/>
</g>
<defs>
<clipPath id="clip0_114_18">
<rect width="24" height="24" fill="white" transform="translate(12 12)"/>
</clipPath>
</defs>
</svg>
