<svg width="100" height="100" viewBox="0 0 100 100" fill="none" xmlns="http://www.w3.org/2000/svg">
<g clip-path="url(#clip0_172_246)">
<path d="M32.0643 98.3598C29.7416 98.3598 27.5482 97.2989 26.0643 95.3755L3.48418 66.5263C2.0002 64.6029 1.41973 62.1495 2.0002 59.7615L10.0646 23.7499C10.5807 21.3623 12.1291 19.4389 14.2584 18.378L46.9033 2.32818C47.9357 1.79814 49.0971 1.53271 50.2584 1.53271C51.4197 1.53271 52.5807 1.79774 53.6131 2.32858L86.2584 18.3118C88.3873 19.3726 89.9357 21.2961 90.4518 23.6837L98.5162 59.6952C99.0326 62.0828 98.5162 64.5367 97.0326 66.4601L74.4518 95.3092C72.9678 97.166 70.7744 98.2935 68.4518 98.2935L32.065 98.3598H32.0643Z" fill="#326DE6"/>
<path d="M50.1932 3.19094C51.0967 3.19094 51.9998 3.38971 52.8385 3.78764L85.4838 19.7708C87.1612 20.6329 88.4514 22.2247 88.8385 24.0818L96.903 60.0934C97.3545 62.0168 96.903 64.0065 95.6772 65.5315L73.0967 94.3811C71.9354 95.9062 70.1288 96.7683 68.258 96.7683H32.0643C30.1932 96.7683 28.387 95.9062 27.2256 94.3811L4.64516 65.5315C3.48383 64.0065 3.03187 62.0168 3.41937 60.0934L11.4838 24.0818C11.9354 22.1584 13.1612 20.5667 14.8385 19.7708L47.4842 3.72179C48.3229 3.39011 49.2905 3.19134 50.1936 3.19134L50.1932 3.19094ZM50.1932 0.0737305C48.8385 0.0737305 47.4838 0.405408 46.1932 1.00211L13.5483 17.0519C10.9674 18.312 9.16117 20.6329 8.51586 23.4847L0.451405 59.4967C-0.193516 62.3485 0.451406 65.2665 2.25805 67.5879L24.8385 96.437C26.5807 98.6917 29.2256 99.9517 31.9998 99.9517H68.1932C70.9674 99.9517 73.6127 98.6917 75.3545 96.437L97.9354 67.5874C99.7416 65.3328 100.387 62.3485 99.7416 59.4963L91.6772 23.4847C91.0323 20.6329 89.2256 18.312 86.6452 17.0519L54.1288 1.00171C52.903 0.405408 51.5483 0.0737305 50.1932 0.0737305Z" fill="#0E0725"/>
<path d="M82.9031 57.2417C82.8387 57.2417 82.8387 57.2417 82.9031 57.2417H82.8387C82.7742 57.2417 82.7098 57.2417 82.7098 57.1754C82.5809 57.1754 82.452 57.1092 82.3227 57.1092C81.8711 57.0429 81.484 56.9767 81.0969 56.9767C80.9031 56.9767 80.7098 56.9766 80.4516 56.91H80.3871C79.0324 56.7775 77.9355 56.645 76.9031 56.3133C76.4516 56.1141 76.3226 55.8491 76.1934 55.5837C76.1934 55.5174 76.1289 55.5174 76.1289 55.4512L75.2902 55.1861C75.6865 52.0663 75.5335 48.8987 74.8387 45.8345C74.1342 42.7449 72.9117 39.805 71.2258 37.1467L71.8711 36.55V36.4174C71.8711 36.0858 71.9355 35.7541 72.1934 35.4224C72.9676 34.6928 73.9355 34.0961 75.0969 33.3665C75.2902 33.234 75.4836 33.1677 75.6773 33.0348C76.0644 32.836 76.3871 32.6373 76.7742 32.3719C76.8387 32.3056 76.9676 32.2393 77.0969 32.1068C77.1613 32.0402 77.2258 32.0402 77.2258 31.9739C78.1289 31.1781 78.3227 29.8517 77.6773 28.9892C77.3547 28.525 76.7742 28.26 76.1934 28.26C75.6777 28.26 75.2258 28.4588 74.7742 28.7905L74.6453 28.923C74.5164 28.9892 74.4516 29.1221 74.3227 29.1884C74 29.5201 73.7418 29.7851 73.484 30.1168C73.3551 30.2493 73.2262 30.4484 73.0324 30.581C72.1289 31.576 71.2902 32.3719 70.4516 32.9686C70.2582 33.1011 70.0648 33.1677 69.8711 33.1677C69.7422 33.1677 69.6129 33.1677 69.484 33.1011H69.3551L68.5805 33.6319C67.7418 32.7035 66.8387 31.9077 65.9355 31.1118C62.0466 27.987 57.3664 26.0763 52.4516 25.607L52.3871 24.7449L52.2582 24.6124C52.0645 24.4132 51.8066 24.2144 51.7418 23.7502C51.6773 22.6889 51.8066 21.4951 51.9356 20.1688V20.1026C51.9356 19.9034 52 19.6384 52.0645 19.4392C52.1289 19.0417 52.1934 18.6434 52.2582 18.1792V17.5825C52.2582 16.3887 51.3547 15.394 50.2582 15.394C49.7418 15.394 49.2258 15.6591 48.8387 16.057C48.452 16.4549 48.2582 16.9854 48.2582 17.5825V18.1129C48.2582 18.5771 48.3227 18.975 48.4516 19.373C48.516 19.5721 48.516 19.7709 48.5805 20.0363V20.1026C48.7094 21.4289 48.9031 22.6227 48.7742 23.684C48.7098 24.1482 48.4516 24.3469 48.2582 24.5461L48.1293 24.6786L48.0645 25.5407C46.9031 25.6732 45.7418 25.8058 44.5805 26.0712C39.6129 27.1987 35.2258 29.7855 31.8066 33.499L31.1613 33.0348H31.0324C30.9035 33.0348 30.7742 33.1011 30.6453 33.1011C30.4516 33.1011 30.2582 33.0348 30.0645 32.9023C29.2258 32.3056 28.3871 31.4431 27.484 30.4484C27.3551 30.3159 27.2262 30.1168 27.0324 29.9843C26.7742 29.6526 26.516 29.3872 26.1934 29.0559C26.1289 28.9892 26 28.9234 25.8711 28.7905C25.8066 28.7242 25.7422 28.7242 25.7422 28.6579C25.3425 28.3185 24.8411 28.131 24.3227 28.1271C23.7418 28.1271 23.1613 28.3925 22.8387 28.8567C22.1934 29.7188 22.3871 31.0451 23.2902 31.841C23.3547 31.841 23.3547 31.9077 23.4191 31.9077C23.548 31.9739 23.6129 32.1064 23.7418 32.1727C24.1289 32.4377 24.4516 32.6369 24.8387 32.836C25.0324 32.9023 25.2258 33.0348 25.4195 33.1677C26.5805 33.8969 27.5484 34.494 28.3227 35.2236C28.6453 35.5549 28.6453 35.8866 28.6453 36.2183V36.3508L29.2902 36.9479C29.1613 37.1467 29.0324 37.2796 28.9676 37.4783C25.7418 42.7177 24.516 48.8855 25.3547 54.987L24.516 55.252C24.516 55.3187 24.4516 55.3187 24.4516 55.3845C24.3227 55.6499 24.1289 55.9154 23.7418 56.1141C22.7742 56.4458 21.6129 56.5787 20.2582 56.7112H20.1934C20 56.7112 19.7418 56.7112 19.5484 56.7775C19.1613 56.7775 18.7742 56.8437 18.3227 56.91C18.1938 56.91 18.0648 56.9767 17.9356 56.9767C17.8711 56.9767 17.8066 56.9767 17.7418 57.0429C16.5805 57.3079 15.8707 58.4355 16.0645 59.4964C16.2582 60.4251 17.0969 61.0222 18.1289 61.0222C18.3227 61.0222 18.4516 61.0222 18.6453 60.9556C18.7098 60.9556 18.7742 60.9556 18.7742 60.8893C18.9031 60.8893 19.032 60.8231 19.1609 60.8231C19.6129 60.6906 19.9356 60.5581 20.3227 60.3589C20.516 60.2926 20.7094 60.1597 20.9031 60.0939H20.9676C22.1934 59.6293 23.2902 59.2313 24.3227 59.0988H24.4516C24.8387 59.0988 25.0969 59.2976 25.2902 59.4305C25.3547 59.4305 25.3547 59.4968 25.4191 59.4968L26.3227 59.3643C27.8711 64.2716 30.8387 68.6488 34.7742 71.8323C35.6773 72.5615 36.5805 73.1586 37.5484 73.7557L37.1613 74.6174C37.1613 74.6841 37.2258 74.6841 37.2258 74.7499C37.3547 75.0154 37.4836 75.347 37.3547 75.8112C36.968 76.8063 36.3871 77.8009 35.6773 78.9284V78.9947C35.5484 79.1939 35.4195 79.3264 35.2906 79.5251C35.0324 79.8568 34.8387 80.1885 34.5805 80.5864C34.516 80.6527 34.4516 80.7852 34.3871 80.9181C34.3871 80.9843 34.3227 81.0506 34.3227 81.0506C33.8066 82.1781 34.1938 83.4382 35.1613 83.9024C35.4191 84.0349 35.6773 84.1016 35.9355 84.1016C36.7098 84.1016 37.484 83.5707 37.8711 82.8411C37.8711 82.7748 37.9355 82.7086 37.9355 82.7086C38 82.5761 38.0645 82.4436 38.1289 82.3769C38.3227 81.9127 38.3871 81.581 38.516 81.1831L38.7098 80.5864C39.1613 79.2601 39.484 78.1988 40.0645 77.2704C40.3223 76.8725 40.6453 76.8063 40.9031 76.6733C40.9676 76.6733 40.9676 76.6733 41.032 76.6071L41.484 75.745C44.3227 76.8725 47.4195 77.4692 50.516 77.4692C52.3871 77.4692 54.3227 77.2704 56.1293 76.8062C57.2661 76.5449 58.3865 76.2126 59.484 75.8112L59.8707 76.5408C59.9355 76.5408 59.9356 76.5408 60 76.6071C60.3227 76.6733 60.5805 76.8062 60.8387 77.2042C61.3547 78.1326 61.7418 79.2601 62.1934 80.5202V80.5864L62.3871 81.1831C62.516 81.581 62.5805 81.979 62.7738 82.3769C62.8387 82.5094 62.9031 82.5761 62.9676 82.7086C62.9676 82.7749 63.0324 82.8411 63.0324 82.8411C63.4191 83.637 64.1934 84.1016 64.9676 84.1016C65.2258 84.1016 65.484 84.0349 65.7418 83.9024C66.1934 83.6374 66.5805 83.239 66.7098 82.7086C66.8387 82.1782 66.8387 81.581 66.5809 81.0506C66.5809 80.9844 66.516 80.9843 66.516 80.9181C66.4516 80.7856 66.3871 80.6531 66.3227 80.5864C66.1289 80.1885 65.8711 79.8568 65.6129 79.5251C65.484 79.3264 65.3551 79.1938 65.2262 78.9951V78.9284C64.516 77.8009 63.8707 76.8063 63.5484 75.8112C63.4195 75.347 63.5484 75.082 63.6129 74.7503C63.6129 74.6841 63.6773 74.6841 63.6773 74.6178L63.3547 73.8219C66.7742 71.766 69.6773 68.8476 71.8711 65.2666C73.0324 63.4094 73.9355 61.3535 74.5805 59.2976L75.3547 59.4301C75.4195 59.4301 75.4195 59.3638 75.4836 59.3638C75.7418 59.2313 75.9355 59.0326 76.3227 59.0326H76.4516C77.484 59.1651 78.5805 59.5626 79.8066 60.0272H79.8711C80.0644 60.0935 80.2578 60.226 80.4516 60.2922C80.8387 60.4914 81.1613 60.6239 81.6129 60.7568C81.7418 60.7568 81.8707 60.8231 82 60.8231C82.0644 60.8231 82.1289 60.8231 82.1934 60.8893C82.3871 60.9556 82.516 60.9556 82.7098 60.9556C83.6773 60.9556 84.516 60.2926 84.7742 59.4305C84.7742 58.6346 84.0645 57.5729 82.9031 57.2417ZM53.032 53.992L50.1934 55.3849L47.3547 53.992L46.6453 50.8751L48.5805 48.355H51.7418L53.6773 50.8751L53.032 53.992ZM69.8711 47.095C70.3716 49.288 70.524 51.5498 70.3227 53.7928L60.4516 50.8751C59.5484 50.6101 59.0324 49.6813 59.2258 48.753C59.2902 48.4875 59.4195 48.2221 59.6129 48.0234L67.4195 40.7943C68.516 42.6515 69.3547 44.774 69.8711 47.095ZM64.3227 36.8154L55.8711 42.9831C55.1613 43.4473 54.1934 43.3144 53.6129 42.5852C53.4195 42.386 53.3551 42.1206 53.2902 41.8556L52.7098 31.0451C57.1036 31.5652 61.1967 33.599 64.3227 36.8154ZM45.6129 31.3764C46.3227 31.2439 46.9676 31.1114 47.6773 30.9789L47.0969 41.5898C47.0324 42.5181 46.3227 43.314 45.3547 43.314C45.0969 43.314 44.7742 43.2478 44.5805 43.1152L36 36.8154C38.6453 34.0961 41.9355 32.2385 45.6129 31.3764ZM32.9031 40.7939L40.5805 47.8238C41.2902 48.4209 41.3547 49.548 40.7742 50.2776C40.5805 50.5427 40.3227 50.7418 40 50.8085L30 53.7928C29.6129 49.283 30.5805 44.707 32.9031 40.7939ZM31.1609 58.7668L41.4195 56.9758C42.2582 56.9096 43.0324 57.5067 43.2258 58.3688C43.2902 58.7663 43.2902 59.0984 43.1613 59.4301L39.2258 69.1789C35.6129 66.7913 32.7094 63.1436 31.1609 58.7668ZM54.7098 71.9644C53.2258 72.2961 51.7418 72.4948 50.1934 72.4948C47.9355 72.4948 45.7418 72.0973 43.6777 71.434L48.7742 61.9502C49.2902 61.3531 50.1289 61.0881 50.8387 61.486C51.1399 61.6757 51.4028 61.9233 51.6129 62.2152L56.5805 71.434C56 71.6327 55.3551 71.7656 54.7098 71.9644ZM67.2902 62.7461C65.6773 65.3987 63.548 67.5209 61.0969 69.1789L57.0324 59.1643C56.8387 58.3688 57.1613 57.5067 57.9356 57.1084C58.1934 56.9758 58.516 56.9096 58.8387 56.9096L69.1613 58.7005C68.7742 60.1593 68.1289 61.486 67.2902 62.7461Z" fill="white"/>
</g>
<defs>
<clipPath id="clip0_172_246">
<rect width="100" height="100" fill="white"/>
</clipPath>
</defs>
</svg>
