<svg width="100" height="100" viewBox="0 0 100 100" fill="none" xmlns="http://www.w3.org/2000/svg">
<path d="M34.375 3.125V43.75H65.625V3.125H34.375ZM37.5 6.25H62.5V40.625H37.5V6.25ZM40.6562 9.375V12.5H59.375V9.375H40.6562ZM40.6562 15.625V18.75H59.375V15.625H40.6562ZM40.6562 21.875V25H59.375V21.875H40.6562ZM50 28.125C47.4281 28.125 45.3125 30.2406 45.3125 32.8125C45.3125 35.3812 47.4281 37.5 50 37.5C52.5719 37.5 54.6875 35.3812 54.6875 32.8125C54.6875 30.2406 52.5719 28.125 50 28.125ZM50 31.25C50.8812 31.25 51.5625 31.9312 51.5625 32.8125C51.5625 33.6938 50.8812 34.375 50 34.375C49.794 34.3779 49.5895 34.3395 49.3986 34.2621C49.2077 34.1846 49.0343 34.0696 48.8886 33.9239C48.7429 33.7782 48.6279 33.6048 48.5504 33.4139C48.473 33.223 48.4346 33.0185 48.4375 32.8125C48.4375 31.9312 49.1188 31.25 50 31.25ZM48.4375 46.875V53.125H14.0625V62.5H17.1875V56.25H48.4375V62.5H51.5625V56.25H82.8125V62.5H85.9375V53.125H51.5625V46.875H48.4375ZM1.5625 65.625V87.5H9.375V93.75H6.25V96.875H25V93.75H21.875V87.5H29.6875V65.625H1.5625ZM35.9375 65.625V87.5H43.75V93.75H40.625V96.875H59.375V93.75H56.25V87.5H64.0625V65.625H35.9375ZM70.3125 65.625V87.5H78.125V93.75H75V96.875H93.75V93.75H90.625V87.5H98.4375V65.625H70.3125ZM4.6875 68.75H26.5625V84.375H4.6875V68.75ZM39.0625 68.75H60.9375V84.375H39.0625V68.75ZM73.4375 68.75H95.3125V84.375H73.4375V68.75ZM12.5 87.5H18.75V93.75H12.5V87.5ZM46.875 87.5H53.125V93.75H46.875V87.5ZM81.25 87.5H87.5V93.75H81.25V87.5Z" fill="white"/>
</svg>
